<?xml version="1.0" encoding="UTF-8"?>
<svg xmlns="http://www.w3.org/2000/svg" width="1200" height="1500" viewBox="0 0 1200 1500">
  <defs>
    <style>
    .ink{stroke:#2e241d;stroke-width:3.2;stroke-linecap:round;stroke-linejoin:round}
    .fine{stroke:#2e241d;stroke-width:2;stroke-linecap:round;stroke-linejoin:round}
    .soft{stroke:#5f4a3f;stroke-width:2;stroke-linecap:round;stroke-linejoin:round}
    .nofill{fill:none}
    .label{font-family:"Trebuchet MS",sans-serif;font-size:22px;letter-spacing:2px;fill:#495e45;font-weight:700}
    .tiny{font-family:"Trebuchet MS",sans-serif;font-size:16px;letter-spacing:1px;fill:#5f4a3f;font-weight:700}
  </style>
  </defs>
  <rect x="0" y="0" width="1200" height="1500" fill="#f8f1e4"></rect>
  <circle cx="70" cy="490" r="1.21" fill="#efe3cf" opacity="0.35"></circle><circle cx="908" cy="1480" r="0.98" fill="#efe3cf" opacity="0.35"></circle><circle cx="784" cy="797" r="1.35" fill="#efe3cf" opacity="0.35"></circle><circle cx="987" cy="171" r="1.28" fill="#efe3cf" opacity="0.35"></circle><circle cx="692" cy="597" r="1.44" fill="#efe3cf" opacity="0.35"></circle><circle cx="102" cy="143" r="1.31" fill="#efe3cf" opacity="0.35"></circle><circle cx="857" cy="1252" r="1.24" fill="#efe3cf" opacity="0.35"></circle><circle cx="234" cy="113" r="0.65" fill="#efe3cf" opacity="0.35"></circle><circle cx="730" cy="431" r="0.70" fill="#efe3cf" opacity="0.35"></circle><circle cx="1058" cy="406" r="2.13" fill="#efe3cf" opacity="0.35"></circle><circle cx="1131" cy="712" r="0.68" fill="#efe3cf" opacity="0.35"></circle><circle cx="316" cy="1377" r="1.96" fill="#efe3cf" opacity="0.35"></circle><circle cx="2" cy="465" r="2.08" fill="#efe3cf" opacity="0.35"></circle><circle cx="1126" cy="740" r="1.11" fill="#efe3cf" opacity="0.35"></circle><circle cx="237" cy="438" r="1.93" fill="#efe3cf" opacity="0.35"></circle><circle cx="78" cy="566" r="1.32" fill="#efe3cf" opacity="0.35"></circle><circle cx="626" cy="1395" r="1.30" fill="#efe3cf" opacity="0.35"></circle><circle cx="269" cy="154" r="1.64" fill="#efe3cf" opacity="0.35"></circle><circle cx="728" cy="1153" r="2.00" fill="#efe3cf" opacity="0.35"></circle><circle cx="1" cy="490" r="1.25" fill="#efe3cf" opacity="0.35"></circle><circle cx="174" cy="537" r="1.86" fill="#efe3cf" opacity="0.35"></circle><circle cx="222" cy="852" r="0.44" fill="#efe3cf" opacity="0.35"></circle><circle cx="37" cy="443" r="1.56" fill="#efe3cf" opacity="0.35"></circle><circle cx="978" cy="174" r="1.49" fill="#efe3cf" opacity="0.35"></circle><circle cx="780" cy="643" r="1.46" fill="#efe3cf" opacity="0.35"></circle><circle cx="313" cy="171" r="0.42" fill="#efe3cf" opacity="0.35"></circle><circle cx="1003" cy="1400" r="1.20" fill="#efe3cf" opacity="0.35"></circle><circle cx="1101" cy="231" r="1.10" fill="#efe3cf" opacity="0.35"></circle><circle cx="662" cy="649" r="0.56" fill="#efe3cf" opacity="0.35"></circle><circle cx="33" cy="1320" r="2.08" fill="#efe3cf" opacity="0.35"></circle><circle cx="528" cy="788" r="1.53" fill="#efe3cf" opacity="0.35"></circle><circle cx="348" cy="1298" r="0.45" fill="#efe3cf" opacity="0.35"></circle><circle cx="698" cy="693" r="1.51" fill="#efe3cf" opacity="0.35"></circle><circle cx="654" cy="1178" r="1.60" fill="#efe3cf" opacity="0.35"></circle><circle cx="1020" cy="188" r="1.92" fill="#efe3cf" opacity="0.35"></circle><circle cx="981" cy="1187" r="1.47" fill="#efe3cf" opacity="0.35"></circle><circle cx="101" cy="1256" r="1.13" fill="#efe3cf" opacity="0.35"></circle><circle cx="1000" cy="804" r="0.88" fill="#efe3cf" opacity="0.35"></circle><circle cx="243" cy="1183" r="2.12" fill="#efe3cf" opacity="0.35"></circle><circle cx="321" cy="1432" r="0.77" fill="#efe3cf" opacity="0.35"></circle><circle cx="69" cy="1379" r="1.69" fill="#efe3cf" opacity="0.35"></circle><circle cx="571" cy="1050" r="1.92" fill="#efe3cf" opacity="0.35"></circle><circle cx="620" cy="822" r="1.46" fill="#efe3cf" opacity="0.35"></circle><circle cx="537" cy="288" r="0.84" fill="#efe3cf" opacity="0.35"></circle><circle cx="107" cy="1355" r="0.84" fill="#efe3cf" opacity="0.35"></circle><circle cx="369" cy="127" r="1.07" fill="#efe3cf" opacity="0.35"></circle><circle cx="91" cy="499" r="0.63" fill="#efe3cf" opacity="0.35"></circle><circle cx="1096" cy="1112" r="1.88" fill="#efe3cf" opacity="0.35"></circle><circle cx="308" cy="435" r="2.20" fill="#efe3cf" opacity="0.35"></circle><circle cx="566" cy="842" r="1.64" fill="#efe3cf" opacity="0.35"></circle><circle cx="827" cy="260" r="1.30" fill="#efe3cf" opacity="0.35"></circle><circle cx="362" cy="20" r="1.94" fill="#efe3cf" opacity="0.35"></circle><circle cx="872" cy="48" r="2.15" fill="#efe3cf" opacity="0.35"></circle><circle cx="737" cy="1310" r="0.40" fill="#efe3cf" opacity="0.35"></circle><circle cx="1154" cy="326" r="1.50" fill="#efe3cf" opacity="0.35"></circle><circle cx="843" cy="813" r="2.19" fill="#efe3cf" opacity="0.35"></circle><circle cx="693" cy="1164" r="2.15" fill="#efe3cf" opacity="0.35"></circle><circle cx="359" cy="1045" r="1.08" fill="#efe3cf" opacity="0.35"></circle><circle cx="593" cy="817" r="1.77" fill="#efe3cf" opacity="0.35"></circle><circle cx="115" cy="541" r="1.89" fill="#efe3cf" opacity="0.35"></circle><circle cx="770" cy="1478" r="1.19" fill="#efe3cf" opacity="0.35"></circle><circle cx="344" cy="1229" r="0.98" fill="#efe3cf" opacity="0.35"></circle><circle cx="438" cy="845" r="0.53" fill="#efe3cf" opacity="0.35"></circle><circle cx="225" cy="126" r="1.40" fill="#efe3cf" opacity="0.35"></circle><circle cx="1168" cy="556" r="2.15" fill="#efe3cf" opacity="0.35"></circle><circle cx="102" cy="1408" r="0.83" fill="#efe3cf" opacity="0.35"></circle><circle cx="34" cy="1397" r="1.35" fill="#efe3cf" opacity="0.35"></circle><circle cx="221" cy="609" r="1.87" fill="#efe3cf" opacity="0.35"></circle><circle cx="1102" cy="506" r="1.40" fill="#efe3cf" opacity="0.35"></circle><circle cx="144" cy="725" r="0.43" fill="#efe3cf" opacity="0.35"></circle><circle cx="322" cy="1328" r="1.77" fill="#efe3cf" opacity="0.35"></circle><circle cx="616" cy="971" r="0.83" fill="#efe3cf" opacity="0.35"></circle><circle cx="107" cy="1287" r="1.55" fill="#efe3cf" opacity="0.35"></circle><circle cx="1110" cy="998" r="0.45" fill="#efe3cf" opacity="0.35"></circle><circle cx="390" cy="336" r="1.83" fill="#efe3cf" opacity="0.35"></circle><circle cx="227" cy="295" r="0.57" fill="#efe3cf" opacity="0.35"></circle><circle cx="1159" cy="92" r="2.07" fill="#efe3cf" opacity="0.35"></circle><circle cx="849" cy="1114" r="1.12" fill="#efe3cf" opacity="0.35"></circle><circle cx="203" cy="288" r="1.87" fill="#efe3cf" opacity="0.35"></circle><circle cx="1089" cy="666" r="1.41" fill="#efe3cf" opacity="0.35"></circle><circle cx="907" cy="1170" r="1.20" fill="#efe3cf" opacity="0.35"></circle><circle cx="1136" cy="498" r="1.32" fill="#efe3cf" opacity="0.35"></circle><circle cx="942" cy="466" r="1.33" fill="#efe3cf" opacity="0.35"></circle><circle cx="504" cy="1144" r="0.86" fill="#efe3cf" opacity="0.35"></circle><circle cx="382" cy="588" r="2.06" fill="#efe3cf" opacity="0.35"></circle><circle cx="299" cy="1119" r="0.69" fill="#efe3cf" opacity="0.35"></circle><circle cx="598" cy="904" r="0.51" fill="#efe3cf" opacity="0.35"></circle><circle cx="10" cy="243" r="0.43" fill="#efe3cf" opacity="0.35"></circle><circle cx="286" cy="113" r="0.69" fill="#efe3cf" opacity="0.35"></circle><circle cx="543" cy="698" r="1.87" fill="#efe3cf" opacity="0.35"></circle><circle cx="1089" cy="1041" r="0.83" fill="#efe3cf" opacity="0.35"></circle><circle cx="1037" cy="142" r="2.19" fill="#efe3cf" opacity="0.35"></circle><circle cx="380" cy="1219" r="0.70" fill="#efe3cf" opacity="0.35"></circle><circle cx="826" cy="1295" r="1.99" fill="#efe3cf" opacity="0.35"></circle><circle cx="39" cy="29" r="1.20" fill="#efe3cf" opacity="0.35"></circle><circle cx="856" cy="1390" r="2.18" fill="#efe3cf" opacity="0.35"></circle><circle cx="175" cy="469" r="1.64" fill="#efe3cf" opacity="0.35"></circle><circle cx="1147" cy="591" r="0.69" fill="#efe3cf" opacity="0.35"></circle><circle cx="130" cy="918" r="1.14" fill="#efe3cf" opacity="0.35"></circle><circle cx="1183" cy="846" r="0.92" fill="#efe3cf" opacity="0.35"></circle><circle cx="1153" cy="1094" r="2.03" fill="#efe3cf" opacity="0.35"></circle><circle cx="691" cy="758" r="0.62" fill="#efe3cf" opacity="0.35"></circle><circle cx="1001" cy="1228" r="0.45" fill="#efe3cf" opacity="0.35"></circle><circle cx="1079" cy="312" r="2.03" fill="#efe3cf" opacity="0.35"></circle><circle cx="231" cy="1355" r="2.03" fill="#efe3cf" opacity="0.35"></circle><circle cx="471" cy="712" r="1.99" fill="#efe3cf" opacity="0.35"></circle><circle cx="32" cy="907" r="1.35" fill="#efe3cf" opacity="0.35"></circle><circle cx="195" cy="780" r="1.59" fill="#efe3cf" opacity="0.35"></circle><circle cx="608" cy="1282" r="0.48" fill="#efe3cf" opacity="0.35"></circle><circle cx="997" cy="1334" r="2.01" fill="#efe3cf" opacity="0.35"></circle><circle cx="477" cy="389" r="0.47" fill="#efe3cf" opacity="0.35"></circle><circle cx="1183" cy="280" r="0.60" fill="#efe3cf" opacity="0.35"></circle><circle cx="494" cy="72" r="2.19" fill="#efe3cf" opacity="0.35"></circle><circle cx="674" cy="961" r="1.25" fill="#efe3cf" opacity="0.35"></circle><circle cx="239" cy="791" r="1.37" fill="#efe3cf" opacity="0.35"></circle><circle cx="913" cy="678" r="1.80" fill="#efe3cf" opacity="0.35"></circle><circle cx="2" cy="545" r="1.54" fill="#efe3cf" opacity="0.35"></circle><circle cx="1008" cy="650" r="1.46" fill="#efe3cf" opacity="0.35"></circle><circle cx="488" cy="1285" r="0.93" fill="#efe3cf" opacity="0.35"></circle><circle cx="1045" cy="1038" r="0.61" fill="#efe3cf" opacity="0.35"></circle><circle cx="1108" cy="71" r="0.47" fill="#efe3cf" opacity="0.35"></circle><circle cx="446" cy="1185" r="2.01" fill="#efe3cf" opacity="0.35"></circle><circle cx="544" cy="1307" r="0.78" fill="#efe3cf" opacity="0.35"></circle><circle cx="891" cy="820" r="1.12" fill="#efe3cf" opacity="0.35"></circle><circle cx="1045" cy="1039" r="1.12" fill="#efe3cf" opacity="0.35"></circle><circle cx="386" cy="1026" r="1.18" fill="#efe3cf" opacity="0.35"></circle><circle cx="1081" cy="416" r="1.72" fill="#efe3cf" opacity="0.35"></circle><circle cx="892" cy="1066" r="0.42" fill="#efe3cf" opacity="0.35"></circle><circle cx="1008" cy="1099" r="0.80" fill="#efe3cf" opacity="0.35"></circle><circle cx="1047" cy="1312" r="1.12" fill="#efe3cf" opacity="0.35"></circle><circle cx="846" cy="896" r="1.76" fill="#efe3cf" opacity="0.35"></circle><circle cx="1026" cy="1143" r="1.23" fill="#efe3cf" opacity="0.35"></circle><circle cx="863" cy="578" r="1.45" fill="#efe3cf" opacity="0.35"></circle><circle cx="94" cy="842" r="1.76" fill="#efe3cf" opacity="0.35"></circle><circle cx="450" cy="925" r="0.93" fill="#efe3cf" opacity="0.35"></circle><circle cx="345" cy="478" r="1.41" fill="#efe3cf" opacity="0.35"></circle><circle cx="1130" cy="320" r="0.57" fill="#efe3cf" opacity="0.35"></circle><circle cx="397" cy="1261" r="0.69" fill="#efe3cf" opacity="0.35"></circle><circle cx="762" cy="745" r="1.12" fill="#efe3cf" opacity="0.35"></circle><circle cx="103" cy="663" r="0.76" fill="#efe3cf" opacity="0.35"></circle><circle cx="957" cy="8" r="1.58" fill="#efe3cf" opacity="0.35"></circle><circle cx="590" cy="61" r="0.73" fill="#efe3cf" opacity="0.35"></circle><circle cx="1024" cy="1355" r="1.26" fill="#efe3cf" opacity="0.35"></circle><circle cx="286" cy="501" r="2.13" fill="#efe3cf" opacity="0.35"></circle><circle cx="939" cy="898" r="1.88" fill="#efe3cf" opacity="0.35"></circle><circle cx="679" cy="875" r="0.85" fill="#efe3cf" opacity="0.35"></circle><circle cx="532" cy="821" r="0.86" fill="#efe3cf" opacity="0.35"></circle><circle cx="312" cy="964" r="2.17" fill="#efe3cf" opacity="0.35"></circle><circle cx="414" cy="566" r="1.82" fill="#efe3cf" opacity="0.35"></circle><circle cx="865" cy="1318" r="1.82" fill="#efe3cf" opacity="0.35"></circle><circle cx="216" cy="634" r="2.02" fill="#efe3cf" opacity="0.35"></circle><circle cx="1097" cy="435" r="1.80" fill="#efe3cf" opacity="0.35"></circle><circle cx="693" cy="661" r="0.43" fill="#efe3cf" opacity="0.35"></circle><circle cx="504" cy="147" r="1.26" fill="#efe3cf" opacity="0.35"></circle><circle cx="817" cy="163" r="1.34" fill="#efe3cf" opacity="0.35"></circle><circle cx="550" cy="812" r="1.27" fill="#efe3cf" opacity="0.35"></circle><circle cx="962" cy="1002" r="2.15" fill="#efe3cf" opacity="0.35"></circle><circle cx="576" cy="894" r="0.64" fill="#efe3cf" opacity="0.35"></circle><circle cx="814" cy="727" r="2.16" fill="#efe3cf" opacity="0.35"></circle><circle cx="63" cy="205" r="1.46" fill="#efe3cf" opacity="0.35"></circle><circle cx="375" cy="953" r="0.76" fill="#efe3cf" opacity="0.35"></circle><circle cx="1088" cy="1183" r="1.82" fill="#efe3cf" opacity="0.35"></circle><circle cx="62" cy="492" r="1.68" fill="#efe3cf" opacity="0.35"></circle><circle cx="819" cy="1112" r="0.91" fill="#efe3cf" opacity="0.35"></circle><circle cx="821" cy="487" r="1.81" fill="#efe3cf" opacity="0.35"></circle><circle cx="1191" cy="279" r="0.63" fill="#efe3cf" opacity="0.35"></circle><circle cx="513" cy="432" r="1.75" fill="#efe3cf" opacity="0.35"></circle><circle cx="1073" cy="786" r="1.56" fill="#efe3cf" opacity="0.35"></circle><circle cx="1102" cy="806" r="1.73" fill="#efe3cf" opacity="0.35"></circle><circle cx="163" cy="598" r="0.41" fill="#efe3cf" opacity="0.35"></circle><circle cx="882" cy="972" r="1.96" fill="#efe3cf" opacity="0.35"></circle><circle cx="759" cy="424" r="2.10" fill="#efe3cf" opacity="0.35"></circle><circle cx="883" cy="1167" r="1.99" fill="#efe3cf" opacity="0.35"></circle><circle cx="914" cy="617" r="0.67" fill="#efe3cf" opacity="0.35"></circle><circle cx="616" cy="77" r="0.45" fill="#efe3cf" opacity="0.35"></circle><circle cx="827" cy="501" r="1.68" fill="#efe3cf" opacity="0.35"></circle><circle cx="509" cy="1010" r="0.51" fill="#efe3cf" opacity="0.35"></circle><circle cx="24" cy="866" r="1.46" fill="#efe3cf" opacity="0.35"></circle><circle cx="676" cy="477" r="0.81" fill="#efe3cf" opacity="0.35"></circle><circle cx="723" cy="1287" r="0.71" fill="#efe3cf" opacity="0.35"></circle><path d="M 1032 601 q 15 -4 29 0" fill="none" stroke="#efe3cf" stroke-width="1.5" opacity="0.4"></path><path d="M 453 620 q 6 -3 12 0" fill="none" stroke="#efe3cf" stroke-width="1.5" opacity="0.4"></path><path d="M 118 305 q 5 2 9 0" fill="none" stroke="#efe3cf" stroke-width="1.5" opacity="0.4"></path><path d="M 377 285 q 5 -1 9 0" fill="none" stroke="#efe3cf" stroke-width="1.5" opacity="0.4"></path><path d="M 976 1382 q 12 2 24 0" fill="none" stroke="#efe3cf" stroke-width="1.5" opacity="0.4"></path><path d="M 960 1451 q 8 0 15 0" fill="none" stroke="#efe3cf" stroke-width="1.5" opacity="0.4"></path><path d="M 1144 674 q 9 -3 18 0" fill="none" stroke="#efe3cf" stroke-width="1.5" opacity="0.4"></path><path d="M 746 179 q 15 4 30 0" fill="none" stroke="#efe3cf" stroke-width="1.5" opacity="0.4"></path><path d="M 725 774 q 13 -5 26 0" fill="none" stroke="#efe3cf" stroke-width="1.5" opacity="0.4"></path><path d="M 451 943 q 15 1 30 0" fill="none" stroke="#efe3cf" stroke-width="1.5" opacity="0.4"></path><path d="M 910 408 q 11 -2 22 0" fill="none" stroke="#efe3cf" stroke-width="1.5" opacity="0.4"></path><path d="M 893 1295 q 12 1 23 0" fill="none" stroke="#efe3cf" stroke-width="1.5" opacity="0.4"></path><path d="M 256 957 q 8 -3 16 0" fill="none" stroke="#efe3cf" stroke-width="1.5" opacity="0.4"></path><path d="M 877 834 q 10 -3 20 0" fill="none" stroke="#efe3cf" stroke-width="1.5" opacity="0.4"></path><path d="M 365 733 q 14 4 27 0" fill="none" stroke="#efe3cf" stroke-width="1.5" opacity="0.4"></path><path d="M 1048 560 q 5 1 9 0" fill="none" stroke="#efe3cf" stroke-width="1.5" opacity="0.4"></path><path d="M 369 1432 q 14 -5 27 0" fill="none" stroke="#efe3cf" stroke-width="1.5" opacity="0.4"></path><path d="M 1045 667 q 9 -2 17 0" fill="none" stroke="#efe3cf" stroke-width="1.5" opacity="0.4"></path><path d="M 534 1396 q 10 -1 20 0" fill="none" stroke="#efe3cf" stroke-width="1.5" opacity="0.4"></path><path d="M 422 922 q 7 -2 14 0" fill="none" stroke="#efe3cf" stroke-width="1.5" opacity="0.4"></path><path d="M 1196 602 q 9 5 17 0" fill="none" stroke="#efe3cf" stroke-width="1.5" opacity="0.4"></path><path d="M 650 61 q 13 -3 25 0" fill="none" stroke="#efe3cf" stroke-width="1.5" opacity="0.4"></path><path d="M 803 844 q 4 0 8 0" fill="none" stroke="#efe3cf" stroke-width="1.5" opacity="0.4"></path><path d="M 1051 1044 q 8 0 16 0" fill="none" stroke="#efe3cf" stroke-width="1.5" opacity="0.4"></path><path d="M 1069 1391 q 8 3 15 0" fill="none" stroke="#efe3cf" stroke-width="1.5" opacity="0.4"></path><path d="M 1048 1098 q 14 0 27 0" fill="none" stroke="#efe3cf" stroke-width="1.5" opacity="0.4"></path><path d="M 218 40 q 13 4 25 0" fill="none" stroke="#efe3cf" stroke-width="1.5" opacity="0.4"></path><path d="M 1021 1204 q 4 -2 8 0" fill="none" stroke="#efe3cf" stroke-width="1.5" opacity="0.4"></path><path d="M 270 1213 q 6 4 12 0" fill="none" stroke="#efe3cf" stroke-width="1.5" opacity="0.4"></path><path d="M 339 872 q 15 -1 29 0" fill="none" stroke="#efe3cf" stroke-width="1.5" opacity="0.4"></path><path d="M 176 6 q 6 -3 12 0" fill="none" stroke="#efe3cf" stroke-width="1.5" opacity="0.4"></path><path d="M 86 598 q 15 5 30 0" fill="none" stroke="#efe3cf" stroke-width="1.5" opacity="0.4"></path><path d="M 365 1382 q 8 -2 16 0" fill="none" stroke="#efe3cf" stroke-width="1.5" opacity="0.4"></path><path d="M 277 131 q 11 -4 21 0" fill="none" stroke="#efe3cf" stroke-width="1.5" opacity="0.4"></path><path d="M 796 963 q 4 -1 8 0" fill="none" stroke="#efe3cf" stroke-width="1.5" opacity="0.4"></path><path d="M 404 421 q 14 -3 28 0" fill="none" stroke="#efe3cf" stroke-width="1.5" opacity="0.4"></path><path d="M 970 265 q 13 5 26 0" fill="none" stroke="#efe3cf" stroke-width="1.5" opacity="0.4"></path><path d="M 78 1031 q 14 -3 27 0" fill="none" stroke="#efe3cf" stroke-width="1.5" opacity="0.4"></path><path d="M 147 1192 q 8 1 15 0" fill="none" stroke="#efe3cf" stroke-width="1.5" opacity="0.4"></path><path d="M 618 431 q 8 -3 16 0" fill="none" stroke="#efe3cf" stroke-width="1.5" opacity="0.4"></path>
  <g><rect x="0" y="1220" width="1200" height="280" fill="#efe3cf" opacity="0.45"></rect><line x1="0" y1="1220" x2="1200" y2="1220" class="fine" fill="none" opacity="0.6"></line></g><rect x="60" y="220" width="320" height="930" rx="24" ry="24" fill="#f4e8d3" class="ink"></rect><rect x="440" y="150" width="320" height="1000" rx="24" ry="24" fill="#f2ead8" class="ink"></rect><rect x="820" y="80" width="320" height="1070" rx="24" ry="24" fill="#f1e4d0" class="ink"></rect><text x="220" y="198" class="label" text-anchor="middle" font-size="30">PROMPT</text><text x="600" y="128" class="label" text-anchor="middle" font-size="30">CONTEXT</text><text x="980" y="58" class="label" text-anchor="middle" font-size="30">HARNESS</text><g><rect x="192" y="632" width="56" height="58" rx="16" ry="16" fill="#fff8ef" class="ink"></rect><rect x="198" y="596" width="44" height="40" rx="14" ry="14" fill="#fff8ef" class="ink"></rect><circle cx="210" cy="616" r="4" fill="#2e241d"></circle><circle cx="230" cy="616" r="4" fill="#2e241d"></circle><rect x="212" y="628" width="16" height="8" rx="4" ry="4" fill="#c97257" class="fine"></rect><line x1="208" y1="596" x2="196" y2="574" class="fine" fill="none"></line><line x1="232" y1="596" x2="244" y2="574" class="fine" fill="none"></line><circle cx="196" cy="574" r="5" fill="#c97257" class="fine"></circle><circle cx="244" cy="574" r="5" fill="#c97257" class="fine"></circle><line x1="192" y1="650" x2="172" y2="668" class="ink" fill="none"></line><line x1="248" y1="650" x2="268" y2="668" class="ink" fill="none"></line><line x1="208" y1="690" x2="198" y2="720" class="ink" fill="none"></line><line x1="232" y1="690" x2="242" y2="720" class="ink" fill="none"></line><circle cx="172" cy="668" r="6" fill="#c97257" class="fine"></circle><circle cx="268" cy="668" r="6" fill="#c97257" class="fine"></circle><circle cx="198" cy="720" r="6" fill="#c97257" class="fine"></circle><circle cx="242" cy="720" r="6" fill="#c97257" class="fine"></circle><circle cx="220" cy="660" r="10" fill="#c97257" class="fine"></circle></g><g><rect x="150" y="420" width="72" height="92" rx="10" ry="10" fill="#efe3cf" class="ink"></rect><line x1="168" y1="434" x2="168" y2="498" class="fine" fill="none"></line><text x="194" y="448" class="tiny" text-anchor="middle" font-size="13">TASK</text><line x1="178" y1="466" x2="206" y2="466" class="fine" fill="none"></line><line x1="178" y1="480" x2="206" y2="480" class="fine" fill="none"></line></g><text x="220" y="830" class="tiny" text-anchor="middle" font-size="18">one note</text><g><rect x="490" y="370" width="220" height="470" fill="#6a7a4f" class="ink"></rect><line x1="510" y1="450" x2="690" y2="450" class="fine" fill="none"></line><line x1="510" y1="540" x2="690" y2="540" class="fine" fill="none"></line><line x1="510" y1="630" x2="690" y2="630" class="fine" fill="none"></line><rect x="514" y="396" width="46" height="52" fill="#e6b2a5" class="fine"></rect><rect x="570" y="390" width="58" height="58" fill="#fff8ef" class="fine"></rect><rect x="534" y="476" width="96" height="52" fill="#89a9bf" class="fine"></rect><circle cx="586" cy="501" r="16" fill="#d8ab4e" class="fine"></circle><rect x="524" y="558" width="26" height="62" fill="#c97257" class="fine"></rect><rect x="560" y="568" width="22" height="52" fill="#d8ab4e" class="fine"></rect><rect x="592" y="560" width="26" height="60" fill="#7da6a3" class="fine"></rect><rect x="526" y="644" width="96" height="30" fill="#efe3cf" class="fine"></rect></g><g><rect x="520" y="270" width="72" height="92" rx="10" ry="10" fill="#efe3cf" class="ink"></rect><line x1="538" y1="284" x2="538" y2="348" class="fine" fill="none"></line><text x="564" y="298" class="tiny" text-anchor="middle" font-size="13">MAP</text><line x1="548" y1="316" x2="576" y2="316" class="fine" fill="none"></line><line x1="548" y1="330" x2="576" y2="330" class="fine" fill="none"></line></g><g><rect x="610" y="270" width="72" height="92" rx="10" ry="10" fill="#efe3cf" class="ink"></rect><line x1="628" y1="284" x2="628" y2="348" class="fine" fill="none"></line><text x="654" y="298" class="tiny" text-anchor="middle" font-size="13">DOCS</text><line x1="638" y1="316" x2="666" y2="316" class="fine" fill="none"></line><line x1="638" y1="330" x2="666" y2="330" class="fine" fill="none"></line></g><g><rect x="574.8" y="963.8" width="50.4" height="52.2" rx="14.4" ry="14.4" fill="#fff8ef" class="ink"></rect><rect x="580.2" y="931.4" width="39.6" height="36" rx="12.6" ry="12.6" fill="#fff8ef" class="ink"></rect><circle cx="591" cy="949.4" r="3.6" fill="#2e241d"></circle><circle cx="609" cy="949.4" r="3.6" fill="#2e241d"></circle><rect x="592.8" y="960.2" width="14.4" height="7.2" rx="3.6" ry="3.6" fill="#d8ab4e" class="fine"></rect><line x1="589.2" y1="931.4" x2="578.4" y2="911.6" class="fine" fill="none"></line><line x1="610.8" y1="931.4" x2="621.6" y2="911.6" class="fine" fill="none"></line><circle cx="578.4" cy="911.6" r="4.5" fill="#d8ab4e" class="fine"></circle><circle cx="621.6" cy="911.6" r="4.5" fill="#d8ab4e" class="fine"></circle><line x1="574.8" y1="980" x2="556.8" y2="996.2" class="ink" fill="none"></line><line x1="625.2" y1="980" x2="643.2" y2="996.2" class="ink" fill="none"></line><line x1="589.2" y1="1016" x2="580.2" y2="1043" class="ink" fill="none"></line><line x1="610.8" y1="1016" x2="619.8" y2="1043" class="ink" fill="none"></line><circle cx="556.8" cy="996.2" r="5.4" fill="#d8ab4e" class="fine"></circle><circle cx="643.2" cy="996.2" r="5.4" fill="#d8ab4e" class="fine"></circle><circle cx="580.2" cy="1043" r="5.4" fill="#d8ab4e" class="fine"></circle><circle cx="619.8" cy="1043" r="5.4" fill="#d8ab4e" class="fine"></circle><circle cx="600" cy="989" r="9" fill="#d8ab4e" class="fine"></circle></g><text x="600" y="1155" class="tiny" text-anchor="middle" font-size="18">organized knowledge</text><g><ellipse cx="980" cy="498.4" rx="60.8" ry="76" fill="#be8d72" class="ink"></ellipse><ellipse cx="980" cy="420.5" rx="79.8" ry="70.3" fill="#d8ccb8" class="ink"></ellipse><ellipse cx="934.4" cy="384.4" rx="19" ry="24.7" fill="#d8ccb8" class="ink"></ellipse><ellipse cx="1025.6" cy="384.4" rx="19" ry="24.7" fill="#d8ccb8" class="ink"></ellipse><circle cx="961" cy="428.1" r="4.2749999999999995" fill="#2e241d"></circle><circle cx="999" cy="428.1" r="4.2749999999999995" fill="#2e241d"></circle><ellipse cx="980" cy="447.1" rx="17.099999999999998" ry="11.399999999999999" fill="#2e241d"></ellipse><ellipse cx="980" cy="547.8" rx="51.3" ry="24.7" fill="#d8ab4e" class="fine"></ellipse><rect x="923" y="475.6" width="114" height="72.2" rx="20.9" ry="20.9" fill="#c97257" class="ink"></rect><rect x="936.3" y="439.5" width="87.39999999999999" height="41.8" rx="13.299999999999999" ry="13.299999999999999" fill="#fffdfa" class="fine"></rect><line x1="970.5" y1="475.6" x2="970.5" y2="547.8" class="fine" fill="none"></line><line x1="989.5" y1="475.6" x2="989.5" y2="547.8" class="fine" fill="none"></line><line x1="926.8" y1="471.8" x2="902.1" y2="517.4" class="ink" fill="none"></line><line x1="1033.2" y1="471.8" x2="1057.9" y2="517.4" class="ink" fill="none"></line><ellipse cx="896.4" cy="523.1" rx="24.7" ry="17.099999999999998" fill="#d8ccb8" class="fine"></ellipse><ellipse cx="1063.6" cy="523.1" rx="24.7" ry="17.099999999999998" fill="#d8ccb8" class="fine"></ellipse></g><g><rect x="892" y="690" width="160" height="122" rx="12" ry="12" fill="#fff8ef" class="ink"></rect><text x="972" y="716" class="tiny" text-anchor="middle" font-size="16">PROGRESS</text><rect x="910" y="732" width="120" height="12" fill="#6a7a4f" class="fine"></rect><rect x="910" y="754" width="90" height="12" fill="#d8ab4e" class="fine"></rect><rect x="910" y="776" width="134" height="12" fill="#c97257" class="fine"></rect><circle cx="1036" cy="738" r="8" fill="#e6b2a5" class="fine"></circle><circle cx="1006" cy="760" r="8" fill="#e6b2a5" class="fine"></circle><circle cx="1050" cy="782" r="8" fill="#e6b2a5" class="fine"></circle></g><g><rect x="1040" y="700" width="82" height="108" rx="10" ry="10" fill="#d8ab4e" class="ink"></rect><rect x="1060" y="692" width="42" height="22" rx="8" ry="8" fill="#be8d72" class="fine"></rect><text x="1081" y="730" class="tiny" text-anchor="middle" font-size="14">EVAL</text><line x1="1058" y1="750" x2="1102" y2="750" class="fine" fill="none"></line><line x1="1058" y1="768" x2="1102" y2="768" class="fine" fill="none"></line><line x1="1058" y1="786" x2="1102" y2="786" class="fine" fill="none"></line></g><g><rect x="882" y="900" width="120" height="84" rx="12" ry="12" fill="#89a9bf" class="ink"></rect><rect x="892" y="910" width="100" height="56" rx="8" ry="8" fill="#fff8ef" class="fine"></rect><text x="942" y="946" class="tiny" text-anchor="middle" font-size="14">TOOLS</text><rect x="928" y="984" width="28" height="16" fill="#8a5e40" class="fine"></rect><rect x="914" y="1000" width="56" height="8" fill="#8a5e40" class="fine"></rect></g><g><line x1="870" y1="620" x2="1092" y2="620" class="ink" fill="none"></line><line x1="870" y1="602" x2="1092" y2="602" class="fine" fill="none"></line><line x1="870" y1="638" x2="1092" y2="638" class="fine" fill="none"></line><circle cx="870" cy="620" r="7" fill="#c97257" class="fine"></circle><circle cx="1092" cy="620" r="7" fill="#c97257" class="fine"></circle></g><g><rect x="907.8" y="1058.3" width="36.4" height="37.7" rx="10.4" ry="10.4" fill="#fff8ef" class="ink"></rect><rect x="911.7" y="1034.9" width="28.6" height="26" rx="9.1" ry="9.1" fill="#fff8ef" class="ink"></rect><circle cx="919.5" cy="1047.9" r="2.6" fill="#2e241d"></circle><circle cx="932.5" cy="1047.9" r="2.6" fill="#2e241d"></circle><rect x="920.8" y="1055.7" width="10.4" height="5.2" rx="2.6" ry="2.6" fill="#7da6a3" class="fine"></rect><line x1="918.2" y1="1034.9" x2="910.4" y2="1020.6" class="fine" fill="none"></line><line x1="933.8" y1="1034.9" x2="941.6" y2="1020.6" class="fine" fill="none"></line><circle cx="910.4" cy="1020.6" r="3.25" fill="#7da6a3" class="fine"></circle><circle cx="941.6" cy="1020.6" r="3.25" fill="#7da6a3" class="fine"></circle><line x1="907.8" y1="1070" x2="894.8" y2="1081.7" class="ink" fill="none"></line><line x1="944.2" y1="1070" x2="957.2" y2="1081.7" class="ink" fill="none"></line><line x1="918.2" y1="1096" x2="911.7" y2="1115.5" class="ink" fill="none"></line><line x1="933.8" y1="1096" x2="940.3" y2="1115.5" class="ink" fill="none"></line><circle cx="894.8" cy="1081.7" r="3.9000000000000004" fill="#7da6a3" class="fine"></circle><circle cx="957.2" cy="1081.7" r="3.9000000000000004" fill="#7da6a3" class="fine"></circle><circle cx="911.7" cy="1115.5" r="3.9000000000000004" fill="#7da6a3" class="fine"></circle><circle cx="940.3" cy="1115.5" r="3.9000000000000004" fill="#7da6a3" class="fine"></circle><circle cx="926" cy="1076.5" r="6.5" fill="#7da6a3" class="fine"></circle></g><g><rect x="1057.8" y="1018.3" width="36.4" height="37.7" rx="10.4" ry="10.4" fill="#fff8ef" class="ink"></rect><rect x="1061.7" y="994.9" width="28.6" height="26" rx="9.1" ry="9.1" fill="#fff8ef" class="ink"></rect><circle cx="1069.5" cy="1007.9" r="2.6" fill="#2e241d"></circle><circle cx="1082.5" cy="1007.9" r="2.6" fill="#2e241d"></circle><rect x="1070.8" y="1015.7" width="10.4" height="5.2" rx="2.6" ry="2.6" fill="#d8ab4e" class="fine"></rect><line x1="1068.2" y1="994.9" x2="1060.4" y2="980.6" class="fine" fill="none"></line><line x1="1083.8" y1="994.9" x2="1091.6" y2="980.6" class="fine" fill="none"></line><circle cx="1060.4" cy="980.6" r="3.25" fill="#d8ab4e" class="fine"></circle><circle cx="1091.6" cy="980.6" r="3.25" fill="#d8ab4e" class="fine"></circle><line x1="1057.8" y1="1030" x2="1044.8" y2="1041.7" class="ink" fill="none"></line><line x1="1094.2" y1="1030" x2="1107.2" y2="1041.7" class="ink" fill="none"></line><line x1="1068.2" y1="1056" x2="1061.7" y2="1075.5" class="ink" fill="none"></line><line x1="1083.8" y1="1056" x2="1090.3" y2="1075.5" class="ink" fill="none"></line><circle cx="1044.8" cy="1041.7" r="3.9000000000000004" fill="#d8ab4e" class="fine"></circle><circle cx="1107.2" cy="1041.7" r="3.9000000000000004" fill="#d8ab4e" class="fine"></circle><circle cx="1061.7" cy="1075.5" r="3.9000000000000004" fill="#d8ab4e" class="fine"></circle><circle cx="1090.3" cy="1075.5" r="3.9000000000000004" fill="#d8ab4e" class="fine"></circle><circle cx="1076" cy="1036.5" r="6.5" fill="#d8ab4e" class="fine"></circle></g><text x="980" y="1195" class="tiny" text-anchor="middle" font-size="18">rules + tools + feedback</text>
</svg>