<?xml version="1.0" encoding="UTF-8"?>
<svg xmlns="http://www.w3.org/2000/svg" width="1400" height="960" viewBox="0 0 1400 960">
  <defs>
    <style>
    .ink{stroke:#2e241d;stroke-width:3.2;stroke-linecap:round;stroke-linejoin:round}
    .fine{stroke:#2e241d;stroke-width:2;stroke-linecap:round;stroke-linejoin:round}
    .soft{stroke:#5f4a3f;stroke-width:2;stroke-linecap:round;stroke-linejoin:round}
    .nofill{fill:none}
    .label{font-family:"Trebuchet MS",sans-serif;font-size:22px;letter-spacing:2px;fill:#495e45;font-weight:700}
    .tiny{font-family:"Trebuchet MS",sans-serif;font-size:16px;letter-spacing:1px;fill:#5f4a3f;font-weight:700}
  </style>
  </defs>
  <rect x="0" y="0" width="1400" height="960" fill="#f8f1e4"></rect>
  <circle cx="295" cy="144" r="0.96" fill="#efe3cf" opacity="0.35"></circle><circle cx="349" cy="372" r="1.02" fill="#efe3cf" opacity="0.35"></circle><circle cx="501" cy="309" r="0.85" fill="#efe3cf" opacity="0.35"></circle><circle cx="50" cy="623" r="0.41" fill="#efe3cf" opacity="0.35"></circle><circle cx="857" cy="710" r="2.14" fill="#efe3cf" opacity="0.35"></circle><circle cx="679" cy="668" r="0.50" fill="#efe3cf" opacity="0.35"></circle><circle cx="1293" cy="809" r="1.76" fill="#efe3cf" opacity="0.35"></circle><circle cx="384" cy="550" r="0.58" fill="#efe3cf" opacity="0.35"></circle><circle cx="399" cy="82" r="0.53" fill="#efe3cf" opacity="0.35"></circle><circle cx="858" cy="245" r="1.03" fill="#efe3cf" opacity="0.35"></circle><circle cx="217" cy="301" r="1.53" fill="#efe3cf" opacity="0.35"></circle><circle cx="438" cy="846" r="1.74" fill="#efe3cf" opacity="0.35"></circle><circle cx="867" cy="315" r="1.89" fill="#efe3cf" opacity="0.35"></circle><circle cx="744" cy="783" r="0.55" fill="#efe3cf" opacity="0.35"></circle><circle cx="119" cy="750" r="0.92" fill="#efe3cf" opacity="0.35"></circle><circle cx="51" cy="718" r="1.17" fill="#efe3cf" opacity="0.35"></circle><circle cx="288" cy="158" r="1.49" fill="#efe3cf" opacity="0.35"></circle><circle cx="314" cy="241" r="1.55" fill="#efe3cf" opacity="0.35"></circle><circle cx="824" cy="110" r="1.73" fill="#efe3cf" opacity="0.35"></circle><circle cx="772" cy="453" r="1.22" fill="#efe3cf" opacity="0.35"></circle><circle cx="285" cy="845" r="0.65" fill="#efe3cf" opacity="0.35"></circle><circle cx="1266" cy="289" r="1.97" fill="#efe3cf" opacity="0.35"></circle><circle cx="397" cy="757" r="1.95" fill="#efe3cf" opacity="0.35"></circle><circle cx="540" cy="448" r="1.20" fill="#efe3cf" opacity="0.35"></circle><circle cx="1251" cy="251" r="1.21" fill="#efe3cf" opacity="0.35"></circle><circle cx="272" cy="351" r="2.00" fill="#efe3cf" opacity="0.35"></circle><circle cx="1312" cy="485" r="1.10" fill="#efe3cf" opacity="0.35"></circle><circle cx="73" cy="91" r="1.17" fill="#efe3cf" opacity="0.35"></circle><circle cx="829" cy="427" r="1.43" fill="#efe3cf" opacity="0.35"></circle><circle cx="314" cy="214" r="2.20" fill="#efe3cf" opacity="0.35"></circle><circle cx="869" cy="169" r="1.59" fill="#efe3cf" opacity="0.35"></circle><circle cx="577" cy="426" r="1.62" fill="#efe3cf" opacity="0.35"></circle><circle cx="1159" cy="565" r="2.03" fill="#efe3cf" opacity="0.35"></circle><circle cx="659" cy="699" r="1.95" fill="#efe3cf" opacity="0.35"></circle><circle cx="352" cy="117" r="1.41" fill="#efe3cf" opacity="0.35"></circle><circle cx="953" cy="300" r="1.91" fill="#efe3cf" opacity="0.35"></circle><circle cx="1164" cy="856" r="1.17" fill="#efe3cf" opacity="0.35"></circle><circle cx="333" cy="518" r="1.57" fill="#efe3cf" opacity="0.35"></circle><circle cx="238" cy="513" r="0.80" fill="#efe3cf" opacity="0.35"></circle><circle cx="456" cy="666" r="0.73" fill="#efe3cf" opacity="0.35"></circle><circle cx="798" cy="282" r="2.13" fill="#efe3cf" opacity="0.35"></circle><circle cx="1061" cy="127" r="1.44" fill="#efe3cf" opacity="0.35"></circle><circle cx="1" cy="554" r="1.46" fill="#efe3cf" opacity="0.35"></circle><circle cx="523" cy="823" r="1.19" fill="#efe3cf" opacity="0.35"></circle><circle cx="14" cy="576" r="0.85" fill="#efe3cf" opacity="0.35"></circle><circle cx="390" cy="827" r="0.91" fill="#efe3cf" opacity="0.35"></circle><circle cx="420" cy="248" r="1.59" fill="#efe3cf" opacity="0.35"></circle><circle cx="863" cy="528" r="0.59" fill="#efe3cf" opacity="0.35"></circle><circle cx="1388" cy="528" r="1.55" fill="#efe3cf" opacity="0.35"></circle><circle cx="803" cy="136" r="1.81" fill="#efe3cf" opacity="0.35"></circle><circle cx="151" cy="125" r="1.53" fill="#efe3cf" opacity="0.35"></circle><circle cx="1274" cy="583" r="0.83" fill="#efe3cf" opacity="0.35"></circle><circle cx="1338" cy="738" r="1.38" fill="#efe3cf" opacity="0.35"></circle><circle cx="735" cy="850" r="1.73" fill="#efe3cf" opacity="0.35"></circle><circle cx="1094" cy="285" r="1.18" fill="#efe3cf" opacity="0.35"></circle><circle cx="1271" cy="404" r="2.18" fill="#efe3cf" opacity="0.35"></circle><circle cx="530" cy="608" r="2.14" fill="#efe3cf" opacity="0.35"></circle><circle cx="112" cy="305" r="1.67" fill="#efe3cf" opacity="0.35"></circle><circle cx="498" cy="160" r="0.90" fill="#efe3cf" opacity="0.35"></circle><circle cx="1273" cy="932" r="1.84" fill="#efe3cf" opacity="0.35"></circle><circle cx="423" cy="478" r="1.95" fill="#efe3cf" opacity="0.35"></circle><circle cx="1061" cy="820" r="1.39" fill="#efe3cf" opacity="0.35"></circle><circle cx="326" cy="442" r="1.35" fill="#efe3cf" opacity="0.35"></circle><circle cx="1399" cy="683" r="1.93" fill="#efe3cf" opacity="0.35"></circle><circle cx="1216" cy="525" r="0.44" fill="#efe3cf" opacity="0.35"></circle><circle cx="491" cy="91" r="1.14" fill="#efe3cf" opacity="0.35"></circle><circle cx="595" cy="761" r="0.80" fill="#efe3cf" opacity="0.35"></circle><circle cx="343" cy="344" r="1.80" fill="#efe3cf" opacity="0.35"></circle><circle cx="1384" cy="719" r="1.03" fill="#efe3cf" opacity="0.35"></circle><circle cx="287" cy="612" r="2.01" fill="#efe3cf" opacity="0.35"></circle><circle cx="1373" cy="238" r="0.56" fill="#efe3cf" opacity="0.35"></circle><circle cx="69" cy="903" r="0.69" fill="#efe3cf" opacity="0.35"></circle><circle cx="526" cy="834" r="0.99" fill="#efe3cf" opacity="0.35"></circle><circle cx="133" cy="399" r="2.01" fill="#efe3cf" opacity="0.35"></circle><circle cx="1196" cy="440" r="2.05" fill="#efe3cf" opacity="0.35"></circle><circle cx="537" cy="495" r="1.48" fill="#efe3cf" opacity="0.35"></circle><circle cx="556" cy="538" r="1.56" fill="#efe3cf" opacity="0.35"></circle><circle cx="1178" cy="86" r="0.99" fill="#efe3cf" opacity="0.35"></circle><circle cx="1178" cy="423" r="1.04" fill="#efe3cf" opacity="0.35"></circle><circle cx="334" cy="951" r="1.24" fill="#efe3cf" opacity="0.35"></circle><circle cx="436" cy="5" r="1.58" fill="#efe3cf" opacity="0.35"></circle><circle cx="195" cy="485" r="0.67" fill="#efe3cf" opacity="0.35"></circle><circle cx="383" cy="209" r="0.51" fill="#efe3cf" opacity="0.35"></circle><circle cx="367" cy="32" r="2.17" fill="#efe3cf" opacity="0.35"></circle><circle cx="635" cy="533" r="1.64" fill="#efe3cf" opacity="0.35"></circle><circle cx="519" cy="766" r="1.27" fill="#efe3cf" opacity="0.35"></circle><circle cx="596" cy="378" r="1.56" fill="#efe3cf" opacity="0.35"></circle><circle cx="1099" cy="9" r="0.98" fill="#efe3cf" opacity="0.35"></circle><circle cx="19" cy="5" r="1.83" fill="#efe3cf" opacity="0.35"></circle><circle cx="657" cy="694" r="1.98" fill="#efe3cf" opacity="0.35"></circle><circle cx="530" cy="738" r="1.46" fill="#efe3cf" opacity="0.35"></circle><circle cx="950" cy="878" r="1.35" fill="#efe3cf" opacity="0.35"></circle><circle cx="841" cy="898" r="1.46" fill="#efe3cf" opacity="0.35"></circle><circle cx="657" cy="557" r="1.63" fill="#efe3cf" opacity="0.35"></circle><circle cx="426" cy="57" r="1.04" fill="#efe3cf" opacity="0.35"></circle><circle cx="367" cy="661" r="1.95" fill="#efe3cf" opacity="0.35"></circle><circle cx="1370" cy="745" r="0.52" fill="#efe3cf" opacity="0.35"></circle><circle cx="1291" cy="772" r="0.72" fill="#efe3cf" opacity="0.35"></circle><circle cx="608" cy="450" r="0.78" fill="#efe3cf" opacity="0.35"></circle><circle cx="121" cy="277" r="1.61" fill="#efe3cf" opacity="0.35"></circle><circle cx="534" cy="898" r="0.99" fill="#efe3cf" opacity="0.35"></circle><circle cx="880" cy="817" r="1.46" fill="#efe3cf" opacity="0.35"></circle><circle cx="56" cy="460" r="1.73" fill="#efe3cf" opacity="0.35"></circle><circle cx="995" cy="652" r="1.30" fill="#efe3cf" opacity="0.35"></circle><circle cx="526" cy="106" r="1.22" fill="#efe3cf" opacity="0.35"></circle><circle cx="759" cy="854" r="1.18" fill="#efe3cf" opacity="0.35"></circle><circle cx="493" cy="466" r="0.50" fill="#efe3cf" opacity="0.35"></circle><circle cx="193" cy="719" r="0.57" fill="#efe3cf" opacity="0.35"></circle><circle cx="77" cy="268" r="0.55" fill="#efe3cf" opacity="0.35"></circle><circle cx="288" cy="735" r="0.80" fill="#efe3cf" opacity="0.35"></circle><circle cx="233" cy="704" r="1.49" fill="#efe3cf" opacity="0.35"></circle><circle cx="302" cy="450" r="0.50" fill="#efe3cf" opacity="0.35"></circle><circle cx="226" cy="231" r="1.93" fill="#efe3cf" opacity="0.35"></circle><circle cx="1239" cy="656" r="0.65" fill="#efe3cf" opacity="0.35"></circle><circle cx="1385" cy="137" r="1.78" fill="#efe3cf" opacity="0.35"></circle><circle cx="1192" cy="174" r="2.18" fill="#efe3cf" opacity="0.35"></circle><circle cx="1388" cy="675" r="1.27" fill="#efe3cf" opacity="0.35"></circle><circle cx="1377" cy="22" r="0.50" fill="#efe3cf" opacity="0.35"></circle><circle cx="882" cy="940" r="0.69" fill="#efe3cf" opacity="0.35"></circle><circle cx="967" cy="707" r="1.76" fill="#efe3cf" opacity="0.35"></circle><circle cx="420" cy="641" r="1.46" fill="#efe3cf" opacity="0.35"></circle><circle cx="890" cy="441" r="1.03" fill="#efe3cf" opacity="0.35"></circle><circle cx="1302" cy="768" r="1.07" fill="#efe3cf" opacity="0.35"></circle><circle cx="628" cy="78" r="2.18" fill="#efe3cf" opacity="0.35"></circle><circle cx="409" cy="348" r="0.50" fill="#efe3cf" opacity="0.35"></circle><circle cx="709" cy="907" r="2.19" fill="#efe3cf" opacity="0.35"></circle><circle cx="936" cy="786" r="0.82" fill="#efe3cf" opacity="0.35"></circle><circle cx="1134" cy="581" r="1.25" fill="#efe3cf" opacity="0.35"></circle><circle cx="959" cy="316" r="1.60" fill="#efe3cf" opacity="0.35"></circle><circle cx="1246" cy="615" r="2.19" fill="#efe3cf" opacity="0.35"></circle><circle cx="1265" cy="512" r="0.66" fill="#efe3cf" opacity="0.35"></circle><circle cx="138" cy="886" r="0.90" fill="#efe3cf" opacity="0.35"></circle><circle cx="1222" cy="907" r="0.87" fill="#efe3cf" opacity="0.35"></circle><circle cx="764" cy="405" r="0.99" fill="#efe3cf" opacity="0.35"></circle><circle cx="213" cy="116" r="2.02" fill="#efe3cf" opacity="0.35"></circle><circle cx="1262" cy="371" r="0.76" fill="#efe3cf" opacity="0.35"></circle><circle cx="896" cy="262" r="0.47" fill="#efe3cf" opacity="0.35"></circle><circle cx="71" cy="529" r="0.68" fill="#efe3cf" opacity="0.35"></circle><circle cx="593" cy="242" r="0.94" fill="#efe3cf" opacity="0.35"></circle><circle cx="467" cy="99" r="1.44" fill="#efe3cf" opacity="0.35"></circle><circle cx="577" cy="161" r="1.04" fill="#efe3cf" opacity="0.35"></circle><circle cx="1000" cy="497" r="0.73" fill="#efe3cf" opacity="0.35"></circle><circle cx="143" cy="150" r="1.62" fill="#efe3cf" opacity="0.35"></circle><circle cx="731" cy="804" r="0.77" fill="#efe3cf" opacity="0.35"></circle><circle cx="295" cy="611" r="2.16" fill="#efe3cf" opacity="0.35"></circle><circle cx="364" cy="309" r="1.32" fill="#efe3cf" opacity="0.35"></circle><circle cx="572" cy="785" r="1.81" fill="#efe3cf" opacity="0.35"></circle><circle cx="953" cy="860" r="1.79" fill="#efe3cf" opacity="0.35"></circle><circle cx="839" cy="475" r="1.73" fill="#efe3cf" opacity="0.35"></circle><circle cx="1263" cy="212" r="0.64" fill="#efe3cf" opacity="0.35"></circle><circle cx="277" cy="89" r="0.55" fill="#efe3cf" opacity="0.35"></circle><circle cx="1389" cy="930" r="1.57" fill="#efe3cf" opacity="0.35"></circle><circle cx="674" cy="295" r="0.44" fill="#efe3cf" opacity="0.35"></circle><circle cx="808" cy="433" r="1.60" fill="#efe3cf" opacity="0.35"></circle><circle cx="729" cy="46" r="1.09" fill="#efe3cf" opacity="0.35"></circle><circle cx="888" cy="429" r="1.44" fill="#efe3cf" opacity="0.35"></circle><circle cx="1239" cy="811" r="2.02" fill="#efe3cf" opacity="0.35"></circle><circle cx="1174" cy="234" r="0.92" fill="#efe3cf" opacity="0.35"></circle><circle cx="691" cy="949" r="1.50" fill="#efe3cf" opacity="0.35"></circle><circle cx="25" cy="158" r="1.00" fill="#efe3cf" opacity="0.35"></circle><circle cx="1013" cy="717" r="0.55" fill="#efe3cf" opacity="0.35"></circle><circle cx="463" cy="636" r="1.31" fill="#efe3cf" opacity="0.35"></circle><circle cx="632" cy="671" r="0.52" fill="#efe3cf" opacity="0.35"></circle><circle cx="595" cy="102" r="1.69" fill="#efe3cf" opacity="0.35"></circle><circle cx="657" cy="483" r="1.56" fill="#efe3cf" opacity="0.35"></circle><circle cx="204" cy="716" r="1.58" fill="#efe3cf" opacity="0.35"></circle><circle cx="623" cy="806" r="0.96" fill="#efe3cf" opacity="0.35"></circle><circle cx="552" cy="715" r="0.72" fill="#efe3cf" opacity="0.35"></circle><circle cx="544" cy="433" r="1.88" fill="#efe3cf" opacity="0.35"></circle><circle cx="16" cy="553" r="2.18" fill="#efe3cf" opacity="0.35"></circle><circle cx="846" cy="510" r="0.48" fill="#efe3cf" opacity="0.35"></circle><circle cx="326" cy="796" r="1.72" fill="#efe3cf" opacity="0.35"></circle><circle cx="741" cy="462" r="1.60" fill="#efe3cf" opacity="0.35"></circle><circle cx="493" cy="70" r="0.87" fill="#efe3cf" opacity="0.35"></circle><circle cx="1307" cy="562" r="0.75" fill="#efe3cf" opacity="0.35"></circle><circle cx="684" cy="144" r="1.60" fill="#efe3cf" opacity="0.35"></circle><circle cx="933" cy="502" r="0.89" fill="#efe3cf" opacity="0.35"></circle><circle cx="1351" cy="464" r="0.81" fill="#efe3cf" opacity="0.35"></circle><circle cx="42" cy="267" r="1.66" fill="#efe3cf" opacity="0.35"></circle><circle cx="750" cy="83" r="1.99" fill="#efe3cf" opacity="0.35"></circle><path d="M 120 740 q 10 1 20 0" fill="none" stroke="#efe3cf" stroke-width="1.5" opacity="0.4"></path><path d="M 971 572 q 13 -1 26 0" fill="none" stroke="#efe3cf" stroke-width="1.5" opacity="0.4"></path><path d="M 710 710 q 8 -1 15 0" fill="none" stroke="#efe3cf" stroke-width="1.5" opacity="0.4"></path><path d="M 436 338 q 11 -4 22 0" fill="none" stroke="#efe3cf" stroke-width="1.5" opacity="0.4"></path><path d="M 821 389 q 10 2 19 0" fill="none" stroke="#efe3cf" stroke-width="1.5" opacity="0.4"></path><path d="M 466 898 q 6 -1 12 0" fill="none" stroke="#efe3cf" stroke-width="1.5" opacity="0.4"></path><path d="M 772 262 q 7 1 14 0" fill="none" stroke="#efe3cf" stroke-width="1.5" opacity="0.4"></path><path d="M 162 278 q 9 -2 18 0" fill="none" stroke="#efe3cf" stroke-width="1.5" opacity="0.4"></path><path d="M 393 265 q 12 -4 24 0" fill="none" stroke="#efe3cf" stroke-width="1.5" opacity="0.4"></path><path d="M 24 801 q 8 4 15 0" fill="none" stroke="#efe3cf" stroke-width="1.5" opacity="0.4"></path><path d="M 344 100 q 5 -1 9 0" fill="none" stroke="#efe3cf" stroke-width="1.5" opacity="0.4"></path><path d="M 272 922 q 16 3 31 0" fill="none" stroke="#efe3cf" stroke-width="1.5" opacity="0.4"></path><path d="M 1116 604 q 14 -1 28 0" fill="none" stroke="#efe3cf" stroke-width="1.5" opacity="0.4"></path><path d="M 423 570 q 6 -4 12 0" fill="none" stroke="#efe3cf" stroke-width="1.5" opacity="0.4"></path><path d="M 1314 527 q 6 0 11 0" fill="none" stroke="#efe3cf" stroke-width="1.5" opacity="0.4"></path><path d="M 502 399 q 13 -4 26 0" fill="none" stroke="#efe3cf" stroke-width="1.5" opacity="0.4"></path><path d="M 850 326 q 13 5 26 0" fill="none" stroke="#efe3cf" stroke-width="1.5" opacity="0.4"></path><path d="M 212 446 q 5 5 10 0" fill="none" stroke="#efe3cf" stroke-width="1.5" opacity="0.4"></path><path d="M 494 237 q 16 3 32 0" fill="none" stroke="#efe3cf" stroke-width="1.5" opacity="0.4"></path><path d="M 1142 1 q 5 -4 10 0" fill="none" stroke="#efe3cf" stroke-width="1.5" opacity="0.4"></path><path d="M 536 562 q 11 0 22 0" fill="none" stroke="#efe3cf" stroke-width="1.5" opacity="0.4"></path><path d="M 1391 657 q 9 -4 18 0" fill="none" stroke="#efe3cf" stroke-width="1.5" opacity="0.4"></path><path d="M 1280 721 q 9 -3 17 0" fill="none" stroke="#efe3cf" stroke-width="1.5" opacity="0.4"></path><path d="M 1059 406 q 15 4 30 0" fill="none" stroke="#efe3cf" stroke-width="1.5" opacity="0.4"></path><path d="M 198 902 q 9 1 17 0" fill="none" stroke="#efe3cf" stroke-width="1.5" opacity="0.4"></path><path d="M 172 584 q 9 -4 18 0" fill="none" stroke="#efe3cf" stroke-width="1.5" opacity="0.4"></path><path d="M 1246 681 q 9 0 17 0" fill="none" stroke="#efe3cf" stroke-width="1.5" opacity="0.4"></path><path d="M 1046 555 q 10 0 19 0" fill="none" stroke="#efe3cf" stroke-width="1.5" opacity="0.4"></path><path d="M 887 879 q 6 2 11 0" fill="none" stroke="#efe3cf" stroke-width="1.5" opacity="0.4"></path><path d="M 547 457 q 5 0 10 0" fill="none" stroke="#efe3cf" stroke-width="1.5" opacity="0.4"></path><path d="M 483 219 q 8 4 16 0" fill="none" stroke="#efe3cf" stroke-width="1.5" opacity="0.4"></path><path d="M 127 844 q 11 2 21 0" fill="none" stroke="#efe3cf" stroke-width="1.5" opacity="0.4"></path><path d="M 370 193 q 16 -3 31 0" fill="none" stroke="#efe3cf" stroke-width="1.5" opacity="0.4"></path><path d="M 687 506 q 16 3 31 0" fill="none" stroke="#efe3cf" stroke-width="1.5" opacity="0.4"></path><path d="M 425 531 q 7 3 13 0" fill="none" stroke="#efe3cf" stroke-width="1.5" opacity="0.4"></path><path d="M 1098 173 q 14 -2 28 0" fill="none" stroke="#efe3cf" stroke-width="1.5" opacity="0.4"></path><path d="M 333 706 q 9 0 18 0" fill="none" stroke="#efe3cf" stroke-width="1.5" opacity="0.4"></path><path d="M 831 480 q 6 -2 12 0" fill="none" stroke="#efe3cf" stroke-width="1.5" opacity="0.4"></path><path d="M 701 864 q 4 1 8 0" fill="none" stroke="#efe3cf" stroke-width="1.5" opacity="0.4"></path><path d="M 1386 731 q 11 -1 22 0" fill="none" stroke="#efe3cf" stroke-width="1.5" opacity="0.4"></path>
  <g><rect x="0" y="760" width="1400" height="200" fill="#efe3cf" opacity="0.45"></rect><line x1="0" y1="760" x2="1400" y2="760" class="fine" fill="none" opacity="0.6"></line></g><rect x="56" y="120" width="580" height="560" rx="24" ry="24" fill="#f5e7d8" class="ink"></rect><rect x="762" y="120" width="580" height="560" rx="24" ry="24" fill="#eef0df" class="ink"></rect><text x="346" y="94" class="label" text-anchor="middle" font-size="30">WITHOUT HARNESS</text><text x="1052" y="94" class="label" text-anchor="middle" font-size="30">WITH HARNESS</text><g><rect x="184.8" y="469.8" width="50.4" height="52.2" rx="14.4" ry="14.4" fill="#fff8ef" class="ink"></rect><rect x="190.2" y="437.4" width="39.6" height="36" rx="12.6" ry="12.6" fill="#fff8ef" class="ink"></rect><circle cx="201" cy="455.4" r="3.6" fill="#2e241d"></circle><circle cx="219" cy="455.4" r="3.6" fill="#2e241d"></circle><rect x="202.8" y="466.2" width="14.4" height="7.2" rx="3.6" ry="3.6" fill="#d26852" class="fine"></rect><line x1="199.2" y1="437.4" x2="188.4" y2="417.6" class="fine" fill="none"></line><line x1="220.8" y1="437.4" x2="231.6" y2="417.6" class="fine" fill="none"></line><circle cx="188.4" cy="417.6" r="4.5" fill="#d26852" class="fine"></circle><circle cx="231.6" cy="417.6" r="4.5" fill="#d26852" class="fine"></circle><line x1="184.8" y1="486" x2="166.8" y2="502.2" class="ink" fill="none"></line><line x1="235.2" y1="486" x2="253.2" y2="502.2" class="ink" fill="none"></line><line x1="199.2" y1="522" x2="190.2" y2="549" class="ink" fill="none"></line><line x1="220.8" y1="522" x2="229.8" y2="549" class="ink" fill="none"></line><circle cx="166.8" cy="502.2" r="5.4" fill="#d26852" class="fine"></circle><circle cx="253.2" cy="502.2" r="5.4" fill="#d26852" class="fine"></circle><circle cx="190.2" cy="549" r="5.4" fill="#d26852" class="fine"></circle><circle cx="229.8" cy="549" r="5.4" fill="#d26852" class="fine"></circle><circle cx="210" cy="495" r="9" fill="#d26852" class="fine"></circle></g><g><rect x="116" y="280" width="72" height="92" rx="10" ry="10" fill="#efe3cf" class="ink"></rect><line x1="134" y1="294" x2="134" y2="358" class="fine" fill="none"></line><text x="160" y="308" class="tiny" text-anchor="middle" font-size="13">???</text><line x1="144" y1="326" x2="172" y2="326" class="fine" fill="none"></line><line x1="144" y1="340" x2="172" y2="340" class="fine" fill="none"></line></g><line x1="116" y1="500" x2="300" y2="330" class="ink" fill="none"></line><line x1="280" y1="520" x2="450" y2="268" class="ink" fill="none"></line><circle cx="450" cy="268" r="18" fill="#d26852" class="fine"></circle><rect x="396" y="470" width="130" height="110" rx="12" ry="12" fill="#efe3cf" class="ink"></rect><text x="462" y="518" class="tiny" text-anchor="middle" font-size="20">done?</text><circle cx="562" cy="210" r="22" fill="#d26852" class="fine"></circle><line x1="546" y1="194" x2="578" y2="226" class="fine" fill="none"></line><line x1="578" y1="194" x2="546" y2="226" class="fine" fill="none"></line><g><rect x="889.36" y="480.16" width="49.28" height="51.04" rx="14.08" ry="14.08" fill="#fff8ef" class="ink"></rect><rect x="894.64" y="448.48" width="38.72" height="35.2" rx="12.32" ry="12.32" fill="#fff8ef" class="ink"></rect><circle cx="905.2" cy="466.08" r="3.52" fill="#2e241d"></circle><circle cx="922.8" cy="466.08" r="3.52" fill="#2e241d"></circle><rect x="906.96" y="476.64" width="14.08" height="7.04" rx="3.52" ry="3.52" fill="#d8ab4e" class="fine"></rect><line x1="903.44" y1="448.48" x2="892.88" y2="429.12" class="fine" fill="none"></line><line x1="924.56" y1="448.48" x2="935.12" y2="429.12" class="fine" fill="none"></line><circle cx="892.88" cy="429.12" r="4.4" fill="#d8ab4e" class="fine"></circle><circle cx="935.12" cy="429.12" r="4.4" fill="#d8ab4e" class="fine"></circle><line x1="889.36" y1="496" x2="871.76" y2="511.84" class="ink" fill="none"></line><line x1="938.64" y1="496" x2="956.24" y2="511.84" class="ink" fill="none"></line><line x1="903.44" y1="531.2" x2="894.64" y2="557.6" class="ink" fill="none"></line><line x1="924.56" y1="531.2" x2="933.36" y2="557.6" class="ink" fill="none"></line><circle cx="871.76" cy="511.84" r="5.28" fill="#d8ab4e" class="fine"></circle><circle cx="956.24" cy="511.84" r="5.28" fill="#d8ab4e" class="fine"></circle><circle cx="894.64" cy="557.6" r="5.28" fill="#d8ab4e" class="fine"></circle><circle cx="933.36" cy="557.6" r="5.28" fill="#d8ab4e" class="fine"></circle><circle cx="914" cy="504.8" r="8.8" fill="#d8ab4e" class="fine"></circle></g><g><rect x="820" y="260" width="72" height="92" rx="10" ry="10" fill="#efe3cf" class="ink"></rect><line x1="838" y1="274" x2="838" y2="338" class="fine" fill="none"></line><text x="864" y="288" class="tiny" text-anchor="middle" font-size="13">PLAN</text><line x1="848" y1="306" x2="876" y2="306" class="fine" fill="none"></line><line x1="848" y1="320" x2="876" y2="320" class="fine" fill="none"></line></g><g><rect x="996" y="252" width="160" height="122" rx="12" ry="12" fill="#fff8ef" class="ink"></rect><text x="1076" y="278" class="tiny" text-anchor="middle" font-size="16">PROGRESS</text><rect x="1014" y="294" width="120" height="12" fill="#6a7a4f" class="fine"></rect><rect x="1014" y="316" width="90" height="12" fill="#d8ab4e" class="fine"></rect><rect x="1014" y="338" width="134" height="12" fill="#c97257" class="fine"></rect><circle cx="1140" cy="300" r="8" fill="#e6b2a5" class="fine"></circle><circle cx="1110" cy="322" r="8" fill="#e6b2a5" class="fine"></circle><circle cx="1154" cy="344" r="8" fill="#e6b2a5" class="fine"></circle></g><g><rect x="1202" y="252" width="82" height="108" rx="10" ry="10" fill="#d8ab4e" class="ink"></rect><rect x="1222" y="244" width="42" height="22" rx="8" ry="8" fill="#be8d72" class="fine"></rect><text x="1243" y="282" class="tiny" text-anchor="middle" font-size="14">CHECK</text><line x1="1220" y1="302" x2="1264" y2="302" class="fine" fill="none"></line><line x1="1220" y1="320" x2="1264" y2="320" class="fine" fill="none"></line><line x1="1220" y1="338" x2="1264" y2="338" class="fine" fill="none"></line></g><g><line x1="848" y1="604" x2="1228" y2="604" class="ink" fill="none"></line><line x1="848" y1="586" x2="1228" y2="586" class="fine" fill="none"></line><line x1="848" y1="622" x2="1228" y2="622" class="fine" fill="none"></line><circle cx="848" cy="604" r="7" fill="#c97257" class="fine"></circle><circle cx="1228" cy="604" r="7" fill="#c97257" class="fine"></circle></g><g><rect x="892" y="430" width="120" height="84" rx="12" ry="12" fill="#89a9bf" class="ink"></rect><rect x="902" y="440" width="100" height="56" rx="8" ry="8" fill="#fff8ef" class="fine"></rect><text x="952" y="476" class="tiny" text-anchor="middle" font-size="14">TEST</text><rect x="938" y="514" width="28" height="16" fill="#8a5e40" class="fine"></rect><rect x="924" y="530" width="56" height="8" fill="#8a5e40" class="fine"></rect></g><circle cx="1220" cy="540" r="18" fill="#6a7a4f" class="fine"></circle><text x="1220" y="547" class="tiny" text-anchor="middle" font-size="14">OK</text><g transform="translate(0 0)"><rect x="1258" y="734" width="44" height="30.800000000000004" rx="8.8" ry="8.8" fill="#be8d72" class="ink"></rect><ellipse cx="1280" cy="723" rx="37.400000000000006" ry="19.8" fill="#6a7a4f" class="fine"></ellipse><ellipse cx="1260.2" cy="709.8" rx="17.6" ry="9.9" fill="#7da6a3" class="fine"></ellipse><ellipse cx="1297.6" cy="707.6" rx="17.6" ry="9.9" fill="#6a7a4f" class="fine"></ellipse><ellipse cx="1280" cy="696.6" rx="17.6" ry="9.9" fill="#d8ab4e" class="fine"></ellipse></g>
</svg>