<?xml version="1.0" encoding="UTF-8"?>
<svg xmlns="http://www.w3.org/2000/svg" width="1600" height="900" viewBox="0 0 1600 900">
  <defs>
    <style>
    .ink{stroke:#2e241d;stroke-width:3.2;stroke-linecap:round;stroke-linejoin:round}
    .fine{stroke:#2e241d;stroke-width:2;stroke-linecap:round;stroke-linejoin:round}
    .soft{stroke:#5f4a3f;stroke-width:2;stroke-linecap:round;stroke-linejoin:round}
    .nofill{fill:none}
    .label{font-family:"Trebuchet MS",sans-serif;font-size:22px;letter-spacing:2px;fill:#495e45;font-weight:700}
    .tiny{font-family:"Trebuchet MS",sans-serif;font-size:16px;letter-spacing:1px;fill:#5f4a3f;font-weight:700}
  </style>
  </defs>
  <rect x="0" y="0" width="1600" height="900" fill="#f8f1e4"></rect>
  <circle cx="819" cy="477" r="1.49" fill="#efe3cf" opacity="0.35"></circle><circle cx="944" cy="766" r="1.37" fill="#efe3cf" opacity="0.35"></circle><circle cx="128" cy="477" r="1.49" fill="#efe3cf" opacity="0.35"></circle><circle cx="721" cy="432" r="1.92" fill="#efe3cf" opacity="0.35"></circle><circle cx="672" cy="603" r="1.63" fill="#efe3cf" opacity="0.35"></circle><circle cx="257" cy="161" r="0.90" fill="#efe3cf" opacity="0.35"></circle><circle cx="633" cy="339" r="1.45" fill="#efe3cf" opacity="0.35"></circle><circle cx="204" cy="537" r="1.44" fill="#efe3cf" opacity="0.35"></circle><circle cx="669" cy="760" r="1.85" fill="#efe3cf" opacity="0.35"></circle><circle cx="1230" cy="286" r="1.52" fill="#efe3cf" opacity="0.35"></circle><circle cx="403" cy="51" r="1.73" fill="#efe3cf" opacity="0.35"></circle><circle cx="1564" cy="267" r="0.66" fill="#efe3cf" opacity="0.35"></circle><circle cx="1190" cy="312" r="1.40" fill="#efe3cf" opacity="0.35"></circle><circle cx="923" cy="761" r="0.66" fill="#efe3cf" opacity="0.35"></circle><circle cx="1360" cy="738" r="1.09" fill="#efe3cf" opacity="0.35"></circle><circle cx="41" cy="69" r="1.91" fill="#efe3cf" opacity="0.35"></circle><circle cx="796" cy="473" r="0.89" fill="#efe3cf" opacity="0.35"></circle><circle cx="803" cy="661" r="0.56" fill="#efe3cf" opacity="0.35"></circle><circle cx="1031" cy="41" r="1.20" fill="#efe3cf" opacity="0.35"></circle><circle cx="1016" cy="886" r="1.17" fill="#efe3cf" opacity="0.35"></circle><circle cx="746" cy="318" r="0.49" fill="#efe3cf" opacity="0.35"></circle><circle cx="1173" cy="377" r="1.77" fill="#efe3cf" opacity="0.35"></circle><circle cx="481" cy="499" r="1.03" fill="#efe3cf" opacity="0.35"></circle><circle cx="1348" cy="144" r="0.61" fill="#efe3cf" opacity="0.35"></circle><circle cx="1008" cy="561" r="0.63" fill="#efe3cf" opacity="0.35"></circle><circle cx="591" cy="340" r="2.09" fill="#efe3cf" opacity="0.35"></circle><circle cx="1365" cy="567" r="1.14" fill="#efe3cf" opacity="0.35"></circle><circle cx="1470" cy="528" r="1.18" fill="#efe3cf" opacity="0.35"></circle><circle cx="493" cy="463" r="0.42" fill="#efe3cf" opacity="0.35"></circle><circle cx="1409" cy="271" r="1.13" fill="#efe3cf" opacity="0.35"></circle><circle cx="198" cy="72" r="1.74" fill="#efe3cf" opacity="0.35"></circle><circle cx="871" cy="463" r="0.59" fill="#efe3cf" opacity="0.35"></circle><circle cx="895" cy="560" r="1.99" fill="#efe3cf" opacity="0.35"></circle><circle cx="1538" cy="538" r="1.49" fill="#efe3cf" opacity="0.35"></circle><circle cx="917" cy="438" r="0.57" fill="#efe3cf" opacity="0.35"></circle><circle cx="1043" cy="586" r="2.19" fill="#efe3cf" opacity="0.35"></circle><circle cx="1137" cy="122" r="0.65" fill="#efe3cf" opacity="0.35"></circle><circle cx="1035" cy="875" r="1.02" fill="#efe3cf" opacity="0.35"></circle><circle cx="1481" cy="339" r="1.77" fill="#efe3cf" opacity="0.35"></circle><circle cx="1046" cy="64" r="0.92" fill="#efe3cf" opacity="0.35"></circle><circle cx="1062" cy="443" r="1.53" fill="#efe3cf" opacity="0.35"></circle><circle cx="360" cy="646" r="0.97" fill="#efe3cf" opacity="0.35"></circle><circle cx="147" cy="499" r="1.09" fill="#efe3cf" opacity="0.35"></circle><circle cx="290" cy="735" r="2.08" fill="#efe3cf" opacity="0.35"></circle><circle cx="1201" cy="5" r="1.18" fill="#efe3cf" opacity="0.35"></circle><circle cx="1361" cy="512" r="1.66" fill="#efe3cf" opacity="0.35"></circle><circle cx="1006" cy="1" r="1.29" fill="#efe3cf" opacity="0.35"></circle><circle cx="786" cy="147" r="1.85" fill="#efe3cf" opacity="0.35"></circle><circle cx="102" cy="76" r="2.20" fill="#efe3cf" opacity="0.35"></circle><circle cx="980" cy="634" r="1.90" fill="#efe3cf" opacity="0.35"></circle><circle cx="1470" cy="884" r="0.49" fill="#efe3cf" opacity="0.35"></circle><circle cx="269" cy="536" r="1.11" fill="#efe3cf" opacity="0.35"></circle><circle cx="668" cy="480" r="0.49" fill="#efe3cf" opacity="0.35"></circle><circle cx="97" cy="416" r="0.89" fill="#efe3cf" opacity="0.35"></circle><circle cx="668" cy="653" r="1.14" fill="#efe3cf" opacity="0.35"></circle><circle cx="541" cy="530" r="1.07" fill="#efe3cf" opacity="0.35"></circle><circle cx="1560" cy="267" r="1.20" fill="#efe3cf" opacity="0.35"></circle><circle cx="392" cy="616" r="0.97" fill="#efe3cf" opacity="0.35"></circle><circle cx="900" cy="579" r="0.41" fill="#efe3cf" opacity="0.35"></circle><circle cx="209" cy="148" r="1.88" fill="#efe3cf" opacity="0.35"></circle><circle cx="217" cy="735" r="0.75" fill="#efe3cf" opacity="0.35"></circle><circle cx="1011" cy="743" r="1.73" fill="#efe3cf" opacity="0.35"></circle><circle cx="1300" cy="90" r="0.56" fill="#efe3cf" opacity="0.35"></circle><circle cx="1191" cy="194" r="0.60" fill="#efe3cf" opacity="0.35"></circle><circle cx="548" cy="87" r="1.99" fill="#efe3cf" opacity="0.35"></circle><circle cx="1022" cy="649" r="1.44" fill="#efe3cf" opacity="0.35"></circle><circle cx="1210" cy="636" r="1.09" fill="#efe3cf" opacity="0.35"></circle><circle cx="1222" cy="204" r="0.77" fill="#efe3cf" opacity="0.35"></circle><circle cx="222" cy="563" r="0.42" fill="#efe3cf" opacity="0.35"></circle><circle cx="902" cy="869" r="1.96" fill="#efe3cf" opacity="0.35"></circle><circle cx="832" cy="788" r="0.50" fill="#efe3cf" opacity="0.35"></circle><circle cx="845" cy="692" r="0.86" fill="#efe3cf" opacity="0.35"></circle><circle cx="1572" cy="125" r="1.98" fill="#efe3cf" opacity="0.35"></circle><circle cx="756" cy="834" r="2.18" fill="#efe3cf" opacity="0.35"></circle><circle cx="622" cy="416" r="1.18" fill="#efe3cf" opacity="0.35"></circle><circle cx="158" cy="169" r="0.57" fill="#efe3cf" opacity="0.35"></circle><circle cx="141" cy="843" r="1.39" fill="#efe3cf" opacity="0.35"></circle><circle cx="914" cy="208" r="2.08" fill="#efe3cf" opacity="0.35"></circle><circle cx="124" cy="752" r="0.89" fill="#efe3cf" opacity="0.35"></circle><circle cx="101" cy="398" r="1.09" fill="#efe3cf" opacity="0.35"></circle><circle cx="224" cy="335" r="0.64" fill="#efe3cf" opacity="0.35"></circle><circle cx="1435" cy="521" r="1.23" fill="#efe3cf" opacity="0.35"></circle><circle cx="1589" cy="313" r="1.42" fill="#efe3cf" opacity="0.35"></circle><circle cx="870" cy="233" r="1.31" fill="#efe3cf" opacity="0.35"></circle><circle cx="1513" cy="272" r="1.25" fill="#efe3cf" opacity="0.35"></circle><circle cx="651" cy="115" r="0.83" fill="#efe3cf" opacity="0.35"></circle><circle cx="1012" cy="19" r="0.57" fill="#efe3cf" opacity="0.35"></circle><circle cx="1186" cy="144" r="0.78" fill="#efe3cf" opacity="0.35"></circle><circle cx="691" cy="705" r="1.48" fill="#efe3cf" opacity="0.35"></circle><circle cx="968" cy="608" r="1.08" fill="#efe3cf" opacity="0.35"></circle><circle cx="1212" cy="830" r="0.99" fill="#efe3cf" opacity="0.35"></circle><circle cx="1137" cy="76" r="0.64" fill="#efe3cf" opacity="0.35"></circle><circle cx="837" cy="614" r="0.58" fill="#efe3cf" opacity="0.35"></circle><circle cx="1472" cy="821" r="0.64" fill="#efe3cf" opacity="0.35"></circle><circle cx="1435" cy="345" r="1.68" fill="#efe3cf" opacity="0.35"></circle><circle cx="913" cy="705" r="2.14" fill="#efe3cf" opacity="0.35"></circle><circle cx="710" cy="202" r="0.98" fill="#efe3cf" opacity="0.35"></circle><circle cx="1144" cy="633" r="0.49" fill="#efe3cf" opacity="0.35"></circle><circle cx="1149" cy="110" r="1.17" fill="#efe3cf" opacity="0.35"></circle><circle cx="1210" cy="387" r="2.11" fill="#efe3cf" opacity="0.35"></circle><circle cx="1186" cy="110" r="0.57" fill="#efe3cf" opacity="0.35"></circle><circle cx="270" cy="15" r="2.10" fill="#efe3cf" opacity="0.35"></circle><circle cx="403" cy="585" r="0.93" fill="#efe3cf" opacity="0.35"></circle><circle cx="517" cy="644" r="1.76" fill="#efe3cf" opacity="0.35"></circle><circle cx="976" cy="877" r="1.39" fill="#efe3cf" opacity="0.35"></circle><circle cx="1293" cy="493" r="1.11" fill="#efe3cf" opacity="0.35"></circle><circle cx="460" cy="810" r="0.58" fill="#efe3cf" opacity="0.35"></circle><circle cx="874" cy="397" r="1.61" fill="#efe3cf" opacity="0.35"></circle><circle cx="846" cy="171" r="1.61" fill="#efe3cf" opacity="0.35"></circle><circle cx="448" cy="270" r="0.58" fill="#efe3cf" opacity="0.35"></circle><circle cx="1419" cy="359" r="0.58" fill="#efe3cf" opacity="0.35"></circle><circle cx="913" cy="404" r="0.76" fill="#efe3cf" opacity="0.35"></circle><circle cx="102" cy="53" r="1.10" fill="#efe3cf" opacity="0.35"></circle><circle cx="1461" cy="376" r="2.03" fill="#efe3cf" opacity="0.35"></circle><circle cx="550" cy="312" r="1.50" fill="#efe3cf" opacity="0.35"></circle><circle cx="11" cy="332" r="1.39" fill="#efe3cf" opacity="0.35"></circle><circle cx="1269" cy="637" r="1.53" fill="#efe3cf" opacity="0.35"></circle><circle cx="1529" cy="563" r="0.70" fill="#efe3cf" opacity="0.35"></circle><circle cx="143" cy="117" r="0.79" fill="#efe3cf" opacity="0.35"></circle><circle cx="1360" cy="140" r="0.64" fill="#efe3cf" opacity="0.35"></circle><circle cx="105" cy="753" r="1.74" fill="#efe3cf" opacity="0.35"></circle><circle cx="34" cy="333" r="0.42" fill="#efe3cf" opacity="0.35"></circle><circle cx="362" cy="723" r="1.25" fill="#efe3cf" opacity="0.35"></circle><circle cx="8" cy="40" r="0.45" fill="#efe3cf" opacity="0.35"></circle><circle cx="605" cy="451" r="0.43" fill="#efe3cf" opacity="0.35"></circle><circle cx="1388" cy="821" r="0.84" fill="#efe3cf" opacity="0.35"></circle><circle cx="558" cy="102" r="0.68" fill="#efe3cf" opacity="0.35"></circle><circle cx="52" cy="373" r="1.76" fill="#efe3cf" opacity="0.35"></circle><circle cx="1236" cy="356" r="1.94" fill="#efe3cf" opacity="0.35"></circle><circle cx="752" cy="280" r="1.52" fill="#efe3cf" opacity="0.35"></circle><circle cx="1045" cy="597" r="1.11" fill="#efe3cf" opacity="0.35"></circle><circle cx="1125" cy="417" r="1.13" fill="#efe3cf" opacity="0.35"></circle><circle cx="674" cy="869" r="0.95" fill="#efe3cf" opacity="0.35"></circle><circle cx="1016" cy="59" r="1.54" fill="#efe3cf" opacity="0.35"></circle><circle cx="203" cy="567" r="0.80" fill="#efe3cf" opacity="0.35"></circle><circle cx="1290" cy="657" r="0.75" fill="#efe3cf" opacity="0.35"></circle><circle cx="1538" cy="372" r="1.04" fill="#efe3cf" opacity="0.35"></circle><circle cx="337" cy="11" r="1.99" fill="#efe3cf" opacity="0.35"></circle><circle cx="213" cy="463" r="1.94" fill="#efe3cf" opacity="0.35"></circle><circle cx="1412" cy="136" r="2.03" fill="#efe3cf" opacity="0.35"></circle><circle cx="639" cy="500" r="1.04" fill="#efe3cf" opacity="0.35"></circle><circle cx="560" cy="86" r="0.45" fill="#efe3cf" opacity="0.35"></circle><circle cx="419" cy="55" r="0.94" fill="#efe3cf" opacity="0.35"></circle><circle cx="977" cy="419" r="0.84" fill="#efe3cf" opacity="0.35"></circle><circle cx="835" cy="563" r="1.77" fill="#efe3cf" opacity="0.35"></circle><circle cx="1490" cy="173" r="1.19" fill="#efe3cf" opacity="0.35"></circle><circle cx="189" cy="630" r="0.96" fill="#efe3cf" opacity="0.35"></circle><circle cx="252" cy="576" r="0.87" fill="#efe3cf" opacity="0.35"></circle><circle cx="259" cy="593" r="0.75" fill="#efe3cf" opacity="0.35"></circle><circle cx="381" cy="210" r="0.42" fill="#efe3cf" opacity="0.35"></circle><circle cx="145" cy="52" r="0.98" fill="#efe3cf" opacity="0.35"></circle><circle cx="829" cy="293" r="2.15" fill="#efe3cf" opacity="0.35"></circle><circle cx="1152" cy="643" r="0.92" fill="#efe3cf" opacity="0.35"></circle><circle cx="1071" cy="378" r="2.01" fill="#efe3cf" opacity="0.35"></circle><circle cx="624" cy="689" r="0.71" fill="#efe3cf" opacity="0.35"></circle><circle cx="387" cy="839" r="0.92" fill="#efe3cf" opacity="0.35"></circle><circle cx="110" cy="778" r="1.96" fill="#efe3cf" opacity="0.35"></circle><circle cx="409" cy="1" r="0.67" fill="#efe3cf" opacity="0.35"></circle><circle cx="782" cy="36" r="1.62" fill="#efe3cf" opacity="0.35"></circle><circle cx="1129" cy="605" r="1.35" fill="#efe3cf" opacity="0.35"></circle><circle cx="336" cy="839" r="2.14" fill="#efe3cf" opacity="0.35"></circle><circle cx="1041" cy="105" r="0.99" fill="#efe3cf" opacity="0.35"></circle><circle cx="497" cy="456" r="1.85" fill="#efe3cf" opacity="0.35"></circle><circle cx="1520" cy="50" r="0.90" fill="#efe3cf" opacity="0.35"></circle><circle cx="628" cy="851" r="1.48" fill="#efe3cf" opacity="0.35"></circle><circle cx="749" cy="133" r="1.55" fill="#efe3cf" opacity="0.35"></circle><circle cx="907" cy="366" r="2.02" fill="#efe3cf" opacity="0.35"></circle><circle cx="742" cy="855" r="0.66" fill="#efe3cf" opacity="0.35"></circle><circle cx="383" cy="543" r="1.83" fill="#efe3cf" opacity="0.35"></circle><circle cx="512" cy="247" r="0.50" fill="#efe3cf" opacity="0.35"></circle><circle cx="543" cy="751" r="2.01" fill="#efe3cf" opacity="0.35"></circle><circle cx="461" cy="395" r="1.19" fill="#efe3cf" opacity="0.35"></circle><circle cx="638" cy="368" r="1.71" fill="#efe3cf" opacity="0.35"></circle><circle cx="172" cy="293" r="0.81" fill="#efe3cf" opacity="0.35"></circle><circle cx="1523" cy="144" r="0.42" fill="#efe3cf" opacity="0.35"></circle><circle cx="923" cy="206" r="0.41" fill="#efe3cf" opacity="0.35"></circle><circle cx="1321" cy="624" r="0.68" fill="#efe3cf" opacity="0.35"></circle><circle cx="1201" cy="5" r="0.53" fill="#efe3cf" opacity="0.35"></circle><circle cx="290" cy="37" r="0.42" fill="#efe3cf" opacity="0.35"></circle><circle cx="1494" cy="779" r="1.80" fill="#efe3cf" opacity="0.35"></circle><path d="M 1035 540 q 14 -2 27 0" fill="none" stroke="#efe3cf" stroke-width="1.5" opacity="0.4"></path><path d="M 80 349 q 6 -2 11 0" fill="none" stroke="#efe3cf" stroke-width="1.5" opacity="0.4"></path><path d="M 653 254 q 6 4 11 0" fill="none" stroke="#efe3cf" stroke-width="1.5" opacity="0.4"></path><path d="M 765 790 q 13 -4 25 0" fill="none" stroke="#efe3cf" stroke-width="1.5" opacity="0.4"></path><path d="M 828 599 q 4 -1 8 0" fill="none" stroke="#efe3cf" stroke-width="1.5" opacity="0.4"></path><path d="M 1125 742 q 9 1 17 0" fill="none" stroke="#efe3cf" stroke-width="1.5" opacity="0.4"></path><path d="M 709 192 q 11 5 22 0" fill="none" stroke="#efe3cf" stroke-width="1.5" opacity="0.4"></path><path d="M 326 69 q 8 0 16 0" fill="none" stroke="#efe3cf" stroke-width="1.5" opacity="0.4"></path><path d="M 488 682 q 16 -1 31 0" fill="none" stroke="#efe3cf" stroke-width="1.5" opacity="0.4"></path><path d="M 588 110 q 13 -1 25 0" fill="none" stroke="#efe3cf" stroke-width="1.5" opacity="0.4"></path><path d="M 403 109 q 5 1 9 0" fill="none" stroke="#efe3cf" stroke-width="1.5" opacity="0.4"></path><path d="M 317 541 q 9 4 17 0" fill="none" stroke="#efe3cf" stroke-width="1.5" opacity="0.4"></path><path d="M 1350 98 q 9 -1 17 0" fill="none" stroke="#efe3cf" stroke-width="1.5" opacity="0.4"></path><path d="M 443 138 q 14 -3 28 0" fill="none" stroke="#efe3cf" stroke-width="1.5" opacity="0.4"></path><path d="M 907 80 q 10 1 20 0" fill="none" stroke="#efe3cf" stroke-width="1.5" opacity="0.4"></path><path d="M 1170 439 q 10 4 20 0" fill="none" stroke="#efe3cf" stroke-width="1.5" opacity="0.4"></path><path d="M 224 658 q 9 3 18 0" fill="none" stroke="#efe3cf" stroke-width="1.5" opacity="0.4"></path><path d="M 965 671 q 10 2 20 0" fill="none" stroke="#efe3cf" stroke-width="1.5" opacity="0.4"></path><path d="M 21 269 q 9 2 18 0" fill="none" stroke="#efe3cf" stroke-width="1.5" opacity="0.4"></path><path d="M 612 595 q 11 2 22 0" fill="none" stroke="#efe3cf" stroke-width="1.5" opacity="0.4"></path><path d="M 1318 7 q 13 3 26 0" fill="none" stroke="#efe3cf" stroke-width="1.5" opacity="0.4"></path><path d="M 884 523 q 6 -3 12 0" fill="none" stroke="#efe3cf" stroke-width="1.5" opacity="0.4"></path><path d="M 863 149 q 10 -1 19 0" fill="none" stroke="#efe3cf" stroke-width="1.5" opacity="0.4"></path><path d="M 325 86 q 8 3 16 0" fill="none" stroke="#efe3cf" stroke-width="1.5" opacity="0.4"></path><path d="M 1053 750 q 6 -3 11 0" fill="none" stroke="#efe3cf" stroke-width="1.5" opacity="0.4"></path><path d="M 52 523 q 16 2 31 0" fill="none" stroke="#efe3cf" stroke-width="1.5" opacity="0.4"></path><path d="M 294 289 q 10 -4 19 0" fill="none" stroke="#efe3cf" stroke-width="1.5" opacity="0.4"></path><path d="M 767 824 q 10 -1 20 0" fill="none" stroke="#efe3cf" stroke-width="1.5" opacity="0.4"></path><path d="M 130 585 q 10 5 19 0" fill="none" stroke="#efe3cf" stroke-width="1.5" opacity="0.4"></path><path d="M 560 149 q 15 0 30 0" fill="none" stroke="#efe3cf" stroke-width="1.5" opacity="0.4"></path><path d="M 369 182 q 8 1 15 0" fill="none" stroke="#efe3cf" stroke-width="1.5" opacity="0.4"></path><path d="M 1234 881 q 7 1 13 0" fill="none" stroke="#efe3cf" stroke-width="1.5" opacity="0.4"></path><path d="M 1175 532 q 16 0 31 0" fill="none" stroke="#efe3cf" stroke-width="1.5" opacity="0.4"></path><path d="M 1362 314 q 5 5 10 0" fill="none" stroke="#efe3cf" stroke-width="1.5" opacity="0.4"></path><path d="M 1014 100 q 5 -4 10 0" fill="none" stroke="#efe3cf" stroke-width="1.5" opacity="0.4"></path><path d="M 506 617 q 12 -1 24 0" fill="none" stroke="#efe3cf" stroke-width="1.5" opacity="0.4"></path><path d="M 898 575 q 12 -1 24 0" fill="none" stroke="#efe3cf" stroke-width="1.5" opacity="0.4"></path><path d="M 133 722 q 6 1 12 0" fill="none" stroke="#efe3cf" stroke-width="1.5" opacity="0.4"></path><path d="M 1494 775 q 16 -1 32 0" fill="none" stroke="#efe3cf" stroke-width="1.5" opacity="0.4"></path><path d="M 548 841 q 13 2 26 0" fill="none" stroke="#efe3cf" stroke-width="1.5" opacity="0.4"></path>
  <g><rect x="0" y="690" width="1600" height="210" fill="#efe3cf" opacity="0.45"></rect><line x1="0" y1="690" x2="1600" y2="690" class="fine" fill="none" opacity="0.6"></line></g><g><line x1="1130" y1="60" x2="1130" y2="160" class="ink" fill="none"></line><ellipse cx="1130" cy="175" rx="70" ry="18" fill="#6a7a4f" class="ink"></ellipse><rect x="1070" y="174" width="120" height="18" fill="#6a7a4f" class="ink"></rect><path d="M 1078 192 q 52 38 104 0" fill="#d8ab4e" class="fine" opacity="0.55"></path></g><g><line x1="900" y1="48" x2="900" y2="148" class="ink" fill="none"></line><ellipse cx="900" cy="163" rx="70" ry="18" fill="#d8ab4e" class="ink"></ellipse><rect x="840" y="162" width="120" height="18" fill="#d8ab4e" class="ink"></rect><path d="M 848 180 q 52 38 104 0" fill="#d8ab4e" class="fine" opacity="0.55"></path></g><g><rect x="70" y="250" width="180" height="420" fill="#495e45" class="ink"></rect><line x1="90" y1="330" x2="230" y2="330" class="fine" fill="none"></line><line x1="90" y1="420" x2="230" y2="420" class="fine" fill="none"></line><line x1="90" y1="510" x2="230" y2="510" class="fine" fill="none"></line><rect x="94" y="276" width="46" height="52" fill="#e6b2a5" class="fine"></rect><rect x="150" y="270" width="58" height="58" fill="#fff8ef" class="fine"></rect><rect x="114" y="356" width="96" height="52" fill="#89a9bf" class="fine"></rect><circle cx="166" cy="381" r="16" fill="#d8ab4e" class="fine"></circle><rect x="104" y="438" width="26" height="62" fill="#c97257" class="fine"></rect><rect x="140" y="448" width="22" height="52" fill="#d8ab4e" class="fine"></rect><rect x="172" y="440" width="26" height="60" fill="#7da6a3" class="fine"></rect><rect x="106" y="524" width="96" height="30" fill="#efe3cf" class="fine"></rect></g><g><rect x="1120" y="230" width="250" height="82" rx="18" ry="18" fill="#c97257" class="ink"></rect><text x="1245" y="278" class="label" text-anchor="middle" font-size="20">HARNESS WORKSHOP</text></g><g><rect x="1300" y="310" width="190" height="270" fill="#fff8ef" class="ink"></rect><rect x="1316" y="326" width="158" height="254" fill="#89a9bf" class="fine"></rect></g><g><rect x="1240" y="480" width="160" height="122" rx="12" ry="12" fill="#fff8ef" class="ink"></rect><text x="1320" y="506" class="tiny" text-anchor="middle" font-size="16">PROGRESS</text><rect x="1258" y="522" width="120" height="12" fill="#6a7a4f" class="fine"></rect><rect x="1258" y="544" width="90" height="12" fill="#d8ab4e" class="fine"></rect><rect x="1258" y="566" width="134" height="12" fill="#c97257" class="fine"></rect><circle cx="1384" cy="528" r="8" fill="#e6b2a5" class="fine"></circle><circle cx="1354" cy="550" r="8" fill="#e6b2a5" class="fine"></circle><circle cx="1398" cy="572" r="8" fill="#e6b2a5" class="fine"></circle></g><g><rect x="380" y="470" width="520" height="24" rx="8" ry="8" fill="#aa7b58" class="ink"></rect><rect x="398" y="494" width="18" height="186" fill="#8a5e40" class="fine"></rect><rect x="864" y="494" width="18" height="186" fill="#8a5e40" class="fine"></rect><rect x="440" y="510" width="400" height="16" fill="#8a5e40" class="fine"></rect></g><rect x="420" y="520" width="140" height="110" rx="16" ry="16" fill="#495e45" class="ink"></rect><rect x="580" y="520" width="140" height="110" rx="16" ry="16" fill="#fff8ef" class="ink"></rect><rect x="740" y="520" width="120" height="110" rx="16" ry="16" fill="#89a9bf" class="ink"></rect><g><rect x="760" y="396" width="72" height="92" rx="10" ry="10" fill="#efe3cf" class="ink"></rect><line x1="778" y1="410" x2="778" y2="474" class="fine" fill="none"></line><text x="804" y="424" class="tiny" text-anchor="middle" font-size="13">PLAN</text><line x1="788" y1="442" x2="816" y2="442" class="fine" fill="none"></line><line x1="788" y1="456" x2="816" y2="456" class="fine" fill="none"></line></g><g><rect x="920" y="420" width="82" height="108" rx="10" ry="10" fill="#d8ab4e" class="ink"></rect><rect x="940" y="412" width="42" height="22" rx="8" ry="8" fill="#be8d72" class="fine"></rect><text x="961" y="450" class="tiny" text-anchor="middle" font-size="14">TESTS</text><line x1="938" y1="470" x2="982" y2="470" class="fine" fill="none"></line><line x1="938" y1="488" x2="982" y2="488" class="fine" fill="none"></line><line x1="938" y1="506" x2="982" y2="506" class="fine" fill="none"></line></g><g><rect x="1020" y="418" width="120" height="84" rx="12" ry="12" fill="#89a9bf" class="ink"></rect><rect x="1030" y="428" width="100" height="56" rx="8" ry="8" fill="#fff8ef" class="fine"></rect><text x="1080" y="464" class="tiny" text-anchor="middle" font-size="14">LOGS</text><rect x="1066" y="502" width="28" height="16" fill="#8a5e40" class="fine"></rect><rect x="1052" y="518" width="56" height="8" fill="#8a5e40" class="fine"></rect></g><g transform="translate(0 0)"><rect x="1386" y="655" width="48" height="33.6" rx="9.6" ry="9.6" fill="#be8d72" class="ink"></rect><ellipse cx="1410" cy="643" rx="40.8" ry="21.599999999999998" fill="#6a7a4f" class="fine"></ellipse><ellipse cx="1388.4" cy="628.6" rx="19.2" ry="10.799999999999999" fill="#7da6a3" class="fine"></ellipse><ellipse cx="1429.2" cy="626.2" rx="19.2" ry="10.799999999999999" fill="#6a7a4f" class="fine"></ellipse><ellipse cx="1410" cy="614.2" rx="19.2" ry="10.799999999999999" fill="#d8ab4e" class="fine"></ellipse></g><g><line x1="930" y1="374" x2="1190" y2="374" class="ink" fill="none"></line><line x1="930" y1="356" x2="1190" y2="356" class="fine" fill="none"></line><line x1="930" y1="392" x2="1190" y2="392" class="fine" fill="none"></line><circle cx="930" cy="374" r="7" fill="#c97257" class="fine"></circle><circle cx="1190" cy="374" r="7" fill="#c97257" class="fine"></circle></g><g><ellipse cx="670" cy="407.6" rx="67.2" ry="84" fill="#be8d72" class="ink"></ellipse><ellipse cx="670" cy="321.5" rx="88.2" ry="77.7" fill="#d8ccb8" class="ink"></ellipse><ellipse cx="619.6" cy="281.6" rx="21" ry="27.3" fill="#d8ccb8" class="ink"></ellipse><ellipse cx="720.4" cy="281.6" rx="21" ry="27.3" fill="#d8ccb8" class="ink"></ellipse><circle cx="649" cy="329.9" r="4.7250000000000005" fill="#2e241d"></circle><circle cx="691" cy="329.9" r="4.7250000000000005" fill="#2e241d"></circle><ellipse cx="670" cy="350.9" rx="18.900000000000002" ry="12.600000000000001" fill="#2e241d"></ellipse><ellipse cx="670" cy="462.20000000000005" rx="56.7" ry="27.3" fill="#d8ab4e" class="fine"></ellipse><rect x="607" y="382.4" width="126" height="79.8" rx="23.1" ry="23.1" fill="#c97257" class="ink"></rect><rect x="621.7" y="342.5" width="96.60000000000001" height="46.2" rx="14.700000000000001" ry="14.700000000000001" fill="#fffdfa" class="fine"></rect><line x1="659.5" y1="382.4" x2="659.5" y2="462.20000000000005" class="fine" fill="none"></line><line x1="680.5" y1="382.4" x2="680.5" y2="462.20000000000005" class="fine" fill="none"></line><line x1="611.2" y1="378.2" x2="583.9" y2="428.6" class="ink" fill="none"></line><line x1="728.8" y1="378.2" x2="756.1" y2="428.6" class="ink" fill="none"></line><ellipse cx="577.6" cy="434.9" rx="27.3" ry="18.900000000000002" fill="#d8ccb8" class="fine"></ellipse><ellipse cx="762.4" cy="434.9" rx="27.3" ry="18.900000000000002" fill="#d8ccb8" class="fine"></ellipse></g><g><rect x="987.04" y="575.24" width="45.919999999999995" height="47.559999999999995" rx="13.12" ry="13.12" fill="#fff8ef" class="ink"></rect><rect x="991.96" y="545.72" width="36.08" height="32.8" rx="11.479999999999999" ry="11.479999999999999" fill="#fff8ef" class="ink"></rect><circle cx="1001.8" cy="562.12" r="3.28" fill="#2e241d"></circle><circle cx="1018.2" cy="562.12" r="3.28" fill="#2e241d"></circle><rect x="1003.44" y="571.96" width="13.12" height="6.56" rx="3.28" ry="3.28" fill="#d8ab4e" class="fine"></rect><line x1="1000.16" y1="545.72" x2="990.32" y2="527.6800000000001" class="fine" fill="none"></line><line x1="1019.84" y1="545.72" x2="1029.68" y2="527.6800000000001" class="fine" fill="none"></line><circle cx="990.32" cy="527.6800000000001" r="4.1" fill="#d8ab4e" class="fine"></circle><circle cx="1029.68" cy="527.6800000000001" r="4.1" fill="#d8ab4e" class="fine"></circle><line x1="987.04" y1="590" x2="970.64" y2="604.76" class="ink" fill="none"></line><line x1="1032.96" y1="590" x2="1049.36" y2="604.76" class="ink" fill="none"></line><line x1="1000.16" y1="622.8" x2="991.96" y2="647.4" class="ink" fill="none"></line><line x1="1019.84" y1="622.8" x2="1028.04" y2="647.4" class="ink" fill="none"></line><circle cx="970.64" cy="604.76" r="4.92" fill="#d8ab4e" class="fine"></circle><circle cx="1049.36" cy="604.76" r="4.92" fill="#d8ab4e" class="fine"></circle><circle cx="991.96" cy="647.4" r="4.92" fill="#d8ab4e" class="fine"></circle><circle cx="1028.04" cy="647.4" r="4.92" fill="#d8ab4e" class="fine"></circle><circle cx="1010" cy="598.2" r="8.2" fill="#d8ab4e" class="fine"></circle></g><g><rect x="1139.84" y="547.04" width="40.32" height="41.76" rx="11.52" ry="11.52" fill="#fff8ef" class="ink"></rect><rect x="1144.16" y="521.12" width="31.68" height="28.799999999999997" rx="10.08" ry="10.08" fill="#fff8ef" class="ink"></rect><circle cx="1152.8" cy="535.52" r="2.88" fill="#2e241d"></circle><circle cx="1167.2" cy="535.52" r="2.88" fill="#2e241d"></circle><rect x="1154.24" y="544.16" width="11.52" height="5.76" rx="2.88" ry="2.88" fill="#c97257" class="fine"></rect><line x1="1151.36" y1="521.12" x2="1142.72" y2="505.28" class="fine" fill="none"></line><line x1="1168.64" y1="521.12" x2="1177.28" y2="505.28" class="fine" fill="none"></line><circle cx="1142.72" cy="505.28" r="3.5999999999999996" fill="#c97257" class="fine"></circle><circle cx="1177.28" cy="505.28" r="3.5999999999999996" fill="#c97257" class="fine"></circle><line x1="1139.84" y1="560" x2="1125.44" y2="572.96" class="ink" fill="none"></line><line x1="1180.16" y1="560" x2="1194.56" y2="572.96" class="ink" fill="none"></line><line x1="1151.36" y1="588.8" x2="1144.16" y2="610.4" class="ink" fill="none"></line><line x1="1168.64" y1="588.8" x2="1175.84" y2="610.4" class="ink" fill="none"></line><circle cx="1125.44" cy="572.96" r="4.32" fill="#c97257" class="fine"></circle><circle cx="1194.56" cy="572.96" r="4.32" fill="#c97257" class="fine"></circle><circle cx="1144.16" cy="610.4" r="4.32" fill="#c97257" class="fine"></circle><circle cx="1175.84" cy="610.4" r="4.32" fill="#c97257" class="fine"></circle><circle cx="1160" cy="567.2" r="7.199999999999999" fill="#c97257" class="fine"></circle></g><g><rect x="874.64" y="590.84" width="34.72" height="35.96" rx="9.92" ry="9.92" fill="#fff8ef" class="ink"></rect><rect x="878.36" y="568.52" width="27.28" height="24.8" rx="8.68" ry="8.68" fill="#fff8ef" class="ink"></rect><circle cx="885.8" cy="580.92" r="2.48" fill="#2e241d"></circle><circle cx="898.2" cy="580.92" r="2.48" fill="#2e241d"></circle><rect x="887.04" y="588.36" width="9.92" height="4.96" rx="2.48" ry="2.48" fill="#7da6a3" class="fine"></rect><line x1="884.56" y1="568.52" x2="877.12" y2="554.88" class="fine" fill="none"></line><line x1="899.44" y1="568.52" x2="906.88" y2="554.88" class="fine" fill="none"></line><circle cx="877.12" cy="554.88" r="3.1" fill="#7da6a3" class="fine"></circle><circle cx="906.88" cy="554.88" r="3.1" fill="#7da6a3" class="fine"></circle><line x1="874.64" y1="602" x2="862.24" y2="613.16" class="ink" fill="none"></line><line x1="909.36" y1="602" x2="921.76" y2="613.16" class="ink" fill="none"></line><line x1="884.56" y1="626.8" x2="878.36" y2="645.4" class="ink" fill="none"></line><line x1="899.44" y1="626.8" x2="905.64" y2="645.4" class="ink" fill="none"></line><circle cx="862.24" cy="613.16" r="3.7199999999999998" fill="#7da6a3" class="fine"></circle><circle cx="921.76" cy="613.16" r="3.7199999999999998" fill="#7da6a3" class="fine"></circle><circle cx="878.36" cy="645.4" r="3.7199999999999998" fill="#7da6a3" class="fine"></circle><circle cx="905.64" cy="645.4" r="3.7199999999999998" fill="#7da6a3" class="fine"></circle><circle cx="892" cy="608.2" r="6.2" fill="#7da6a3" class="fine"></circle></g><text x="800" y="820" class="label" text-anchor="middle" font-size="44">HARNESS ENGINEERING</text><text x="800" y="858" class="tiny" text-anchor="middle" font-size="20">build the workbench, not just the prompt</text>
</svg>